<?xml version="1.0" standalone="no"?>
<!DOCTYPE svg PUBLIC "-//W3C//DTD SVG 20010904//EN"
 "http://www.w3.org/TR/2001/REC-SVG-20010904/DTD/svg10.dtd">
<svg version="1.0" xmlns="http://www.w3.org/2000/svg"
 width="1280.000000pt" height="1224.000000pt" viewBox="0 0 1280.000000 1224.000000"
 preserveAspectRatio="xMidYMid meet">
<metadata>
Created by potrace 1.15, written by Peter Selinger 2001-2017
</metadata>
<g transform="translate(0.000000,1224.000000) scale(0.100000,-0.100000)"
fill="#fff8f8" stroke="none">
<path d="M5885 12230 c-281 -23 -402 -53 -675 -162 -238 -96 -360 -137 -444
-149 -39 -6 -91 -17 -116 -24 -25 -8 -70 -16 -100 -20 -106 -11 -185 -28 -223
-47 -53 -26 -42 -31 26 -12 34 10 67 14 84 9 24 -6 12 -11 -77 -34 -129 -34
-222 -71 -320 -128 -64 -38 -193 -134 -187 -139 5 -4 346 77 385 91 40 16 61
42 25 31 -10 -2 -28 -7 -40 -11 -13 -3 -23 -2 -23 3 0 6 24 15 53 22 103 24
127 31 127 39 0 5 -17 7 -39 4 -23 -3 -41 -1 -45 6 -4 6 -4 11 1 11 30 0 190
33 198 41 5 6 2 9 -9 9 -9 0 -15 4 -12 9 3 4 35 11 71 15 73 7 115 20 115 36
0 5 -11 10 -25 10 -14 0 -25 5 -25 11 0 6 8 8 18 5 34 -9 100 -16 300 -31 112
-9 214 -20 228 -25 14 -6 39 -10 55 -10 16 0 56 -13 89 -30 68 -34 74 -36 66
-15 -7 20 -3 19 36 -5 18 -11 42 -20 53 -20 19 0 19 1 -3 18 -48 37 -7 28 64
-14 139 -82 238 -124 174 -74 -46 36 -9 20 78 -33 120 -74 120 -74 97 -47 -11
12 -50 42 -87 66 -66 43 -84 64 -52 64 8 0 59 -22 113 -50 101 -51 117 -57
123 -41 2 5 59 -18 128 -52 279 -138 359 -173 349 -155 -13 23 2 23 32 -1 65
-50 165 -111 183 -111 17 0 15 4 -11 20 -18 11 -33 27 -33 36 0 17 13 9 109
-64 49 -37 101 -66 107 -59 2 2 -14 17 -36 32 -41 28 -67 62 -56 72 3 3 44
-25 91 -61 98 -77 161 -116 189 -116 13 0 4 10 -27 30 -40 25 -61 50 -42 50 3
0 68 -43 145 -95 140 -95 193 -121 131 -64 -58 53 -24 44 51 -13 76 -58 128
-88 150 -88 7 0 2 9 -12 20 -14 10 -22 22 -18 25 3 4 37 -16 73 -45 68 -52
154 -100 177 -100 7 0 -9 14 -37 30 -27 16 -66 43 -85 60 l-35 31 50 -27 c393
-217 689 -440 771 -581 29 -49 45 -53 20 -4 -17 33 -20 51 -8 51 8 -1 40 -50
109 -170 23 -41 43 -72 43 -67 0 21 -90 183 -152 272 -152 220 -172 247 -195
262 -28 19 -93 101 -93 117 1 6 25 -15 54 -48 29 -32 58 -57 65 -55 7 3 -49
71 -125 154 -170 187 -192 212 -128 153 27 -27 58 -48 69 -48 15 0 7 13 -35
56 -117 119 -290 249 -485 365 -162 97 -196 115 -473 257 -236 120 -251 130
-220 136 36 6 181 -8 238 -23 82 -22 112 -34 237 -95 157 -77 238 -130 443
-291 165 -129 250 -189 315 -223 22 -11 63 -48 91 -83 28 -35 104 -122 169
-194 233 -257 331 -384 403 -522 53 -103 98 -239 114 -348 10 -73 17 -91 44
-120 39 -43 74 -46 102 -10 20 25 25 49 38 190 5 60 8 67 19 52 28 -39 36
-141 24 -298 -20 -261 -4 -340 77 -387 63 -36 83 -28 115 50 100 244 87 574
-37 961 -55 170 -179 451 -206 468 -6 4 -59 12 -119 19 l-109 13 -31 56 c-150
267 -434 566 -754 793 -57 40 -104 76 -105 79 0 5 57 0 201 -19 76 -9 110 -31
376 -241 82 -65 216 -170 298 -235 83 -65 163 -134 179 -154 106 -135 310
-475 455 -759 29 -57 59 -103 66 -103 7 0 34 9 60 21 l48 21 37 -38 c21 -22
57 -74 79 -116 46 -87 45 -89 -43 -63 -68 21 -110 20 -102 -1 18 -48 36 -216
36 -344 0 -280 -59 -544 -172 -775 -46 -96 -139 -236 -150 -229 -14 9 -49 84
-90 192 -51 138 -75 182 -96 182 -16 0 -88 159 -194 430 -36 91 -48 86 -28
-12 10 -44 10 -62 1 -71 -7 -7 -11 -7 -11 -1 0 31 -23 183 -31 212 -7 20 -17
32 -29 32 -14 0 -20 14 -30 68 -18 95 -55 205 -97 285 -20 37 -37 66 -39 64
-2 -2 6 -28 17 -58 37 -94 67 -204 120 -432 28 -122 53 -224 55 -226 2 -2 4
14 4 37 0 23 5 42 10 42 6 0 10 -24 11 -52 1 -60 19 -120 39 -126 9 -3 11 1 5
14 -13 32 -18 104 -8 104 6 0 13 -21 16 -47 10 -80 24 -114 92 -228 62 -105
88 -124 44 -31 -14 27 -19 51 -15 62 6 14 15 -5 37 -71 16 -49 59 -146 95
-215 150 -288 186 -373 210 -498 13 -68 19 -233 7 -204 -11 28 -33 12 -33 -25
0 -47 -15 -103 -35 -128 -14 -18 -14 -17 -4 12 6 18 9 40 7 50 -4 14 -7 12
-17 -12 -39 -90 -40 -92 -40 -67 -2 43 -25 17 -53 -58 -15 -40 -32 -78 -39
-84 -9 -8 -10 -6 -4 9 15 39 17 65 6 65 -6 0 -11 -6 -11 -12 0 -7 -31 -78 -70
-158 -51 -106 -71 -160 -75 -200 -5 -47 -4 -51 6 -30 75 159 91 190 100 190 6
0 6 -7 -1 -19 -13 -24 -13 -44 -1 -39 14 5 164 187 215 262 79 115 91 159 92
330 l0 149 56 36 c169 108 310 293 398 523 27 71 76 248 91 328 6 36 15 71 19
79 9 17 11 11 50 -204 33 -184 60 -281 92 -333 18 -30 25 -33 62 -32 69 3 76
1 76 -19 0 -24 22 -29 79 -19 53 10 63 4 55 -29 l-7 -25 71 4 c70 4 71 3 74
-21 3 -24 6 -25 56 -22 30 1 74 -5 103 -14 27 -9 68 -15 89 -13 37 3 39 2 34
-19 -6 -21 -3 -23 27 -23 19 1 53 4 76 9 40 8 41 7 47 -22 6 -27 8 -29 38 -23
68 14 103 17 88 8 -8 -5 -71 -21 -140 -35 -69 -14 -192 -40 -275 -57 -309 -64
-462 -122 -590 -222 -77 -61 -149 -157 -170 -226 l-7 -23 39 19 c163 83 525
165 848 193 137 11 502 8 536 -6 14 -5 11 -15 -19 -73 -19 -37 -43 -77 -54
-88 -17 -19 -17 -22 -4 -27 9 -4 16 -15 16 -26 0 -15 -10 -23 -40 -31 -22 -6
-52 -21 -67 -34 -27 -24 -28 -24 -9 -45 22 -24 23 -23 -26 -46 -49 -22 -88
-62 -88 -89 0 -18 -11 -26 -55 -41 -58 -19 -64 -25 -40 -45 12 -10 6 -18 -43
-50 -31 -21 -81 -66 -111 -100 -62 -71 -124 -105 -256 -141 -107 -30 -382 -33
-520 -7 -200 38 -439 119 -640 218 -55 27 -101 47 -103 45 -2 -2 48 -37 110
-79 184 -122 364 -196 599 -248 91 -19 133 -22 344 -22 189 -1 258 3 323 17
178 36 374 117 527 217 113 74 175 129 235 210 29 39 65 77 81 85 32 17 89 20
89 5 0 -5 -16 -10 -35 -10 -19 0 -35 -4 -35 -10 0 -5 -1 -13 -2 -17 -2 -4 19
-12 46 -17 57 -13 75 -36 27 -36 -41 0 -41 -26 -1 -35 16 -4 40 -19 53 -35 23
-26 27 -27 82 -21 32 3 60 11 62 17 4 12 -27 24 -62 24 -34 0 -95 20 -95 31 0
7 17 9 48 5 26 -4 54 -2 62 3 17 12 19 11 -74 39 -71 21 -83 39 -30 44 21 2
39 8 41 13 2 6 -24 22 -57 37 l-60 27 20 52 c11 29 31 64 44 78 25 24 26 24
46 6 19 -17 20 -17 20 0 0 10 -7 26 -16 36 -14 16 -11 24 47 106 34 48 75 99
92 112 l29 25 -7 -25 c-4 -13 -27 -57 -52 -97 -25 -40 -43 -75 -40 -78 3 -3
21 10 40 30 23 23 42 57 57 103 33 99 57 141 93 163 45 28 50 25 28 -18 -27
-52 -53 -148 -48 -174 3 -19 7 -16 24 22 11 25 28 67 38 94 20 56 59 101 95
112 24 6 25 6 7 -13 -16 -19 -178 -323 -171 -323 1 0 49 48 106 106 96 99 165
150 190 142 6 -2 -7 -19 -30 -36 -22 -18 -64 -62 -92 -97 -52 -68 -55 -87 -4
-34 64 67 170 118 144 69 -6 -10 -47 -54 -91 -97 -82 -79 -106 -110 -94 -121
3 -3 49 39 103 94 87 89 193 166 209 151 4 -5 -7 -13 -74 -54 -51 -30 -7 -46
48 -17 17 8 38 14 47 12 12 -2 -8 -24 -63 -68 -93 -75 -175 -155 -175 -171 0
-6 18 5 41 26 43 39 201 145 216 145 4 0 -37 -43 -91 -95 -113 -108 -125 -142
-14 -40 110 101 153 121 238 115 15 -1 -9 -12 -64 -30 -48 -16 -93 -33 -99
-39 -16 -16 6 -14 69 5 28 10 60 14 69 10 25 -9 20 -12 -70 -36 -88 -24 -105
-33 -105 -61 0 -22 13 -25 29 -5 18 22 109 57 152 59 23 1 45 -5 54 -13 13
-13 9 -15 -29 -17 -24 -1 -62 -11 -85 -23 -44 -22 -121 -95 -121 -113 0 -7 4
-7 12 1 18 18 38 14 38 -8 0 -31 14 -24 57 26 33 40 45 47 78 48 36 1 42 -3
79 -53 29 -38 42 -49 44 -37 2 9 -13 39 -33 67 -21 27 -36 51 -34 53 2 2 37
-21 77 -51 79 -59 80 -60 50 -130 l-12 -28 -4 38 c-4 50 -17 47 -32 -9 -7 -26
-35 -80 -63 -122 -47 -72 -71 -121 -64 -128 2 -2 32 35 66 82 64 85 92 107 52
38 -32 -54 -17 -54 21 1 68 96 86 189 48 238 -26 32 -25 35 5 29 36 -6 44 23
14 54 l-24 26 30 -8 c17 -4 32 -8 34 -10 3 -3 -1 -60 -9 -129 -7 -69 -10 -128
-7 -131 7 -7 43 111 57 186 15 77 20 74 20 -13 0 -43 4 -77 9 -77 5 0 12 27
16 61 4 34 13 63 20 65 10 4 12 38 8 152 -5 135 -4 145 11 127 15 -20 15 -20
16 6 0 63 -30 129 -92 194 -57 61 -59 65 -34 65 38 0 32 13 -19 38 -49 24 -60
42 -20 34 36 -6 31 14 -10 40 -35 23 -44 41 -25 53 17 11 11 25 -11 25 -12 0
-37 8 -56 17 -32 15 -34 17 -15 24 47 18 33 29 -37 29 -66 0 -98 11 -66 24 28
11 15 24 -35 35 -30 7 -92 8 -155 4 -76 -4 -105 -3 -105 5 0 7 9 12 20 12 11
0 20 5 20 11 0 18 -60 2 -113 -31 -65 -40 -81 -38 -32 4 22 19 37 37 33 41
-11 12 -65 -24 -107 -71 l-41 -47 -82 17 c-133 29 -343 103 -483 171 -430 210
-1007 713 -1336 1165 -286 393 -554 940 -598 1220 -20 125 -28 146 -71 183
-77 65 -363 176 -650 250 -366 96 -1210 253 -1620 302 -376 44 -923 65 -1175
45z"/>
<path d="M4060 11553 c-136 -22 -275 -71 -398 -142 -62 -35 -303 -180 -310
-187 -2 -1 1 -11 6 -21 9 -14 5 -24 -15 -45 -38 -39 -21 -46 36 -15 48 27 81
34 81 20 0 -5 -25 -21 -56 -37 -64 -34 -150 -100 -164 -127 -6 -10 46 18 117
65 71 46 152 95 181 110 30 15 52 30 49 32 -3 3 -14 1 -25 -5 -24 -13 -42 -14
-42 -3 0 5 24 16 54 25 55 18 94 47 63 47 -9 0 -27 -4 -41 -10 -16 -6 -26 -6
-26 0 0 5 19 14 43 20 82 22 113 33 207 81 94 48 97 63 7 38 -21 -5 -48 -7
-60 -3 -22 7 -22 7 -1 15 12 4 61 15 110 24 90 17 136 36 131 57 -1 6 35 20
85 33 48 12 91 24 95 28 7 7 -83 7 -127 0z"/>
<path d="M4692 11514 c18 -19 108 -32 108 -16 0 10 -73 32 -107 32 -16 0 -16
-1 -1 -16z"/>
<path d="M4925 11491 c12 -20 65 -38 130 -46 80 -8 53 9 -45 30 -40 8 -77 18
-83 22 -6 4 -7 1 -2 -6z"/>
<path d="M5470 11445 c59 -38 66 -40 75 -25 3 6 0 10 -7 10 -7 0 -30 11 -50
25 -20 14 -45 25 -55 25 -10 0 6 -15 37 -35z"/>
<path d="M4485 11461 c-7 -13 17 -24 40 -19 9 1 16 8 16 13 0 14 -48 19 -56 6z"/>
<path d="M4650 11400 c-10 -7 12 -10 71 -10 47 0 108 -3 135 -6 47 -5 48 -5
24 10 -29 18 -205 22 -230 6z"/>
<path d="M4982 11395 c7 -8 138 -45 138 -39 0 11 -83 44 -111 44 -18 0 -30 -2
-27 -5z"/>
<path d="M5220 11351 c0 -12 92 -51 104 -43 6 3 4 8 -4 10 -8 3 -27 13 -42 23
-27 20 -58 25 -58 10z"/>
<path d="M4744 11344 c-7 -3 -10 -13 -7 -24 4 -15 -3 -21 -35 -30 -67 -18
-142 -28 -249 -35 -56 -3 -121 -12 -145 -19 l-43 -14 40 -2 40 -2 -35 -10
c-19 -6 -29 -13 -22 -15 6 -3 12 -11 12 -19 0 -18 2 -18 45 3 24 12 38 14 46
6 7 -7 -11 -15 -56 -28 -37 -10 -69 -24 -72 -32 -9 -24 3 -25 44 -5 71 36 217
81 288 88 64 7 154 43 127 52 -5 1 -52 -8 -104 -22 -99 -26 -188 -41 -188 -31
0 11 58 27 216 60 146 29 227 55 239 75 5 8 -123 12 -141 4z"/>
<path d="M4488 11308 c-16 -5 -28 -13 -28 -17 0 -9 105 11 116 22 11 10 -56 7
-88 -5z"/>
<path d="M4242 11290 c-18 -4 -36 -10 -39 -14 -12 -11 102 -5 142 9 l40 13
-55 0 c-30 0 -70 -4 -88 -8z"/>
<path d="M5015 11239 c42 -19 77 -24 89 -12 8 9 -70 33 -104 32 -22 -1 -20 -3
15 -20z"/>
<path d="M5250 11251 c14 -5 44 -18 68 -30 60 -31 77 -21 21 12 -27 16 -60 27
-80 26 -31 -1 -32 -1 -9 -8z"/>
<path d="M5870 11240 c0 -5 6 -10 13 -10 8 0 24 -11 37 -25 13 -14 31 -25 39
-25 10 1 1 14 -24 35 -40 34 -65 44 -65 25z"/>
<path d="M4155 11174 c-22 -8 -47 -22 -55 -31 -14 -14 -13 -15 5 -8 11 4 46
16 78 27 31 11 57 22 57 24 0 9 -47 2 -85 -12z"/>
<path d="M4430 11146 c-25 -7 -85 -29 -135 -49 -86 -34 -175 -57 -175 -43 0 3
20 11 45 17 27 7 50 20 56 31 6 11 9 21 7 23 -9 9 -119 -20 -172 -46 l-61 -29
44 5 c43 6 44 5 28 -13 -10 -10 -42 -24 -71 -31 -30 -7 -60 -19 -68 -28 -14
-17 -14 -17 60 3 49 14 18 -17 -58 -57 -75 -39 -160 -107 -160 -129 0 -5 28 6
63 26 112 64 304 150 313 141 2 -2 -94 -52 -214 -111 -231 -115 -302 -155
-394 -220 -55 -39 -74 -62 -43 -50 33 13 10 -7 -108 -94 -67 -51 -136 -105
-152 -122 l-29 -30 24 0 c19 0 12 -7 -31 -33 -30 -18 -79 -51 -109 -73 -56
-42 -148 -94 -164 -94 -5 0 12 22 38 50 46 49 57 68 34 54 -94 -52 -264 -165
-302 -200 -50 -45 -58 -69 -12 -39 14 9 33 15 43 13 12 -2 -2 -13 -40 -31 -57
-29 -91 -65 -176 -191 -26 -38 -31 -50 -20 -57 10 -6 6 -18 -19 -53 -53 -73
-12 -58 70 27 49 49 73 67 76 58 3 -9 -19 -37 -56 -70 -55 -50 -82 -91 -82
-124 0 -6 13 4 29 23 16 19 31 33 34 30 3 -3 -5 -36 -18 -75 -22 -65 -44 -176
-33 -165 18 18 99 230 100 262 1 36 7 44 72 97 109 88 208 161 501 371 300
214 434 316 574 432 123 103 220 194 199 185 -38 -14 -14 14 81 98 156 136
286 226 426 291 72 33 65 42 -15 20z"/>
<path d="M3423 11070 c-99 -61 -178 -131 -226 -202 -40 -59 -93 -172 -78 -166
6 1 76 65 156 142 143 135 182 185 89 112 -43 -33 -64 -43 -64 -32 0 3 47 43
105 90 148 123 154 140 18 56z"/>
<path d="M3250 10784 c-138 -107 -210 -195 -210 -253 0 -13 -16 -29 -49 -47
-37 -21 -47 -32 -43 -46 3 -14 -12 -35 -54 -74 -55 -51 -58 -56 -41 -69 18
-13 16 -15 -20 -34 -52 -26 -71 -48 -49 -57 9 -4 33 6 58 25 23 17 49 31 57
31 8 0 -21 -24 -65 -54 -43 -30 -93 -69 -109 -87 l-30 -32 70 37 c163 87 278
202 414 410 48 75 67 112 59 117 -11 7 -6 17 37 75 5 7 6 17 1 21 -4 4 -31
-17 -60 -48 -62 -68 -136 -135 -136 -123 0 5 64 71 142 146 79 76 139 137 133
137 -5 0 -53 -34 -105 -75z"/>
<path d="M7294 10682 c4 -6 86 -75 182 -153 212 -170 284 -237 349 -321 41
-53 43 -58 14 -30 -34 31 -59 41 -59 23 0 -5 8 -12 19 -16 10 -3 26 -14 36
-25 17 -19 17 -20 1 -20 -10 0 -32 11 -50 25 -33 25 -66 33 -66 16 0 -9 78
-51 94 -51 4 0 31 -11 61 -25 56 -27 85 -67 85 -118 0 -18 7 -28 23 -32 33
-11 87 -54 87 -71 0 -20 -11 -18 -50 11 -19 14 -42 25 -53 25 -12 0 4 -17 45
-47 59 -45 108 -103 108 -127 0 -6 -14 -11 -31 -12 -25 -1 -35 6 -54 35 -31
49 -66 80 -94 83 -39 5 -34 -15 12 -44 64 -40 167 -149 253 -268 42 -58 95
-124 117 -147 63 -66 35 -51 -43 22 -38 36 -75 65 -82 65 -7 0 29 -40 80 -88
88 -82 142 -145 142 -165 0 -4 -4 -5 -10 -2 -14 9 -13 -18 2 -33 20 -20 -1
-26 -23 -6 l-22 19 16 -30 c8 -17 45 -64 82 -105 66 -74 92 -110 79 -110 -4 0
-24 19 -46 42 -21 23 -40 39 -43 37 -2 -3 18 -30 46 -59 28 -30 98 -125 155
-211 57 -87 118 -168 136 -182 32 -23 68 -41 68 -32 0 2 -36 79 -81 172 -121
252 -269 604 -269 638 0 15 19 1 23 -17 4 -12 9 -19 12 -16 12 12 -58 134
-144 253 -115 157 -142 198 -135 204 3 3 16 -8 29 -24 13 -17 26 -27 31 -23
10 11 -47 77 -265 304 -187 196 -242 261 -172 201 32 -27 51 -34 51 -19 0 4
-49 44 -108 89 -151 116 -255 214 -149 141 15 -11 35 -18 44 -16 26 5 -342
220 -416 243 -15 5 -21 4 -17 -3z"/>
<path d="M4414 10501 c-135 -104 -311 -213 -719 -446 -344 -196 -653 -394
-655 -419 0 -5 11 -37 24 -70 33 -82 52 -181 71 -366 16 -165 60 -432 74 -457
4 -9 11 61 14 168 20 598 189 939 557 1124 l75 38 -104 -99 c-132 -125 -209
-222 -261 -327 -49 -100 -82 -227 -78 -299 l3 -53 13 40 c28 82 133 282 183
349 68 89 173 176 277 227 46 23 86 48 89 55 11 29 73 54 198 79 72 15 140 33
152 41 13 8 58 17 100 19 43 3 114 10 158 16 71 10 92 8 185 -12 67 -14 147
-23 222 -25 96 -2 123 -6 158 -24 61 -31 164 -50 232 -43 63 6 68 14 43 63
-15 30 -79 80 -102 80 -6 0 -13 -8 -15 -17 -3 -15 -9 -12 -35 16 -31 34 -34
34 -120 36 -57 2 -138 14 -228 35 -299 69 -538 48 -895 -78 -84 -30 -85 -30
-55 -6 88 72 266 156 410 193 192 51 461 64 730 36 77 -8 244 -22 370 -30 127
-9 273 -22 325 -31 154 -24 267 -64 181 -64 -51 0 -544 -69 -552 -77 -8 -9
-12 -29 -10 -55 0 -9 15 -27 33 -39 31 -23 31 -23 26 -2 -6 21 -3 21 61 17 36
-3 102 -1 146 4 47 5 96 5 119 0 28 -6 49 -5 75 6 20 8 86 21 146 30 61 9 140
26 176 37 l66 21 154 -75 c85 -41 163 -82 174 -91 19 -16 18 -16 -20 -9 -71
13 -296 6 -477 -16 -98 -12 -220 -21 -272 -21 -52 0 -117 -5 -143 -10 -58 -13
-116 -55 -95 -68 32 -21 204 -37 387 -36 209 1 352 17 595 65 l155 30 111 -64
c152 -89 164 -97 164 -116 -1 -24 -23 -49 -54 -61 -35 -13 -46 -6 -46 30 0 45
-10 63 -26 49 -11 -9 -15 -5 -20 20 -4 17 -10 31 -14 31 -12 0 -36 -33 -49
-67 -21 -53 -30 -55 -102 -26 -51 21 -86 27 -177 31 -125 5 -220 -5 -447 -50
-82 -16 -203 -32 -267 -35 -105 -5 -118 -8 -118 -24 0 -26 -21 -35 -33 -14 -8
15 -13 8 -29 -39 -20 -58 -18 -106 3 -76 8 11 9 8 4 -13 -8 -37 14 -32 33 6
13 26 16 27 95 27 45 0 149 9 231 21 155 22 336 23 355 4 7 -7 -6 -36 -42 -90
-67 -101 -121 -195 -114 -201 4 -4 54 70 156 233 18 28 39 57 48 65 30 24 5
-32 -52 -117 -72 -107 -116 -185 -106 -185 9 0 35 37 105 152 75 123 121 159
181 144 25 -6 25 -7 10 -37 -9 -16 -38 -60 -65 -97 -42 -58 -72 -122 -58 -122
3 0 45 62 93 138 l88 137 48 0 c26 0 50 -3 54 -7 4 -4 -16 -32 -45 -63 -29
-30 -55 -53 -57 -51 -3 2 3 18 11 35 23 44 20 48 -15 15 -31 -30 -113 -174
-103 -183 2 -3 19 1 37 8 18 7 44 16 60 18 22 4 27 2 27 -14 0 -11 11 -30 24
-42 l24 -23 16 30 c20 39 65 92 78 92 6 0 3 -11 -6 -25 -21 -32 -20 -52 2 -64
13 -7 23 -4 44 16 30 29 51 24 25 -5 -29 -31 -20 -40 49 -47 47 -6 71 -13 85
-28 16 -18 23 -19 37 -9 30 21 62 35 68 30 3 -4 1 -23 -5 -43 -16 -59 4 -87
29 -40 13 25 32 35 28 14 -3 -11 14 -23 46 -34 18 -5 18 -7 -4 -30 -27 -28
-22 -42 9 -25 19 9 21 8 21 -15 0 -16 6 -25 16 -25 11 0 15 -6 11 -20 -6 -24
15 -27 33 -5 7 8 19 15 28 15 13 0 13 -2 -1 -18 -21 -23 -22 -43 -2 -36 8 4
15 1 15 -6 0 -6 10 -10 22 -8 16 2 26 16 37 50 21 61 38 80 52 55 6 -9 15 -14
21 -11 11 7 6 -64 -8 -99 -3 -10 -1 -17 5 -17 6 0 11 11 11 25 0 16 6 25 15
25 18 0 18 -2 0 -70 -20 -74 -18 -82 7 -37 30 50 42 47 33 -9 -11 -73 11 -45
40 54 23 74 60 140 72 128 4 -4 -81 -246 -97 -277 -10 -17 -9 -20 2 -17 7 3
31 55 53 116 46 127 59 147 81 118 22 -31 17 -70 -25 -179 -43 -110 -59 -177
-43 -177 5 0 22 44 36 98 15 53 37 117 49 142 l21 45 4 -43 c2 -31 -6 -67 -28
-125 -17 -45 -33 -102 -36 -127 -3 -32 9 -5 42 93 25 76 50 135 55 130 16 -16
339 -613 584 -1078 86 -165 173 -329 192 -365 32 -62 33 -64 6 -31 -171 206
-403 615 -643 1136 -56 121 -103 221 -105 223 -2 2 -8 -20 -14 -48 -9 -41 -46
-146 -78 -217 -3 -7 0 -13 5 -13 6 0 20 26 32 58 30 79 51 122 60 122 5 0 16
-24 25 -52 37 -114 130 -338 183 -443 31 -60 101 -177 156 -260 54 -82 137
-213 184 -290 147 -242 215 -338 297 -421 198 -201 487 -285 665 -194 40 20
114 96 131 134 10 21 7 30 -16 60 -15 20 -30 36 -34 36 -3 0 -37 -11 -76 -25
-38 -13 -72 -25 -75 -24 -3 0 15 18 40 40 l45 40 -53 -26 c-67 -32 -131 -90
-149 -134 -19 -46 -10 -50 17 -7 21 35 56 66 73 66 5 0 -3 -14 -17 -31 -31
-37 -43 -76 -27 -92 24 -24 8 -29 -86 -25 -114 4 -173 27 -234 91 -105 107
-134 309 -68 481 10 27 17 52 14 54 -8 8 -43 -61 -49 -97 -31 -176 -41 -181
-81 -41 -21 73 -17 11 5 -74 25 -97 65 -211 91 -254 29 -50 23 -50 -27 -2 -70
69 -146 191 -238 382 -117 242 -117 243 -104 370 12 126 0 186 -62 316 -54
113 -119 212 -339 511 -309 422 -499 662 -654 827 l-58 63 27 87 c27 88 29
163 6 186 -14 14 -27 5 -73 -58 -44 -61 -81 -77 -54 -24 14 27 14 30 0 30 -9
0 -25 -15 -36 -34 -11 -19 -27 -37 -36 -40 -9 -4 -80 32 -182 91 -343 201
-657 345 -916 419 -186 54 -351 79 -895 139 -278 30 -525 57 -550 60 -41 4
-50 1 -96 -34z"/>
<path d="M8420 10364 c0 -3 15 -33 34 -67 40 -71 97 -218 116 -295 12 -53 30
-79 30 -43 0 27 -91 284 -123 347 -14 28 -33 54 -42 57 -8 4 -15 4 -15 1z"/>
<path d="M7755 10098 c11 -6 35 -24 53 -40 32 -27 53 -36 51 -20 -1 13 -89 72
-107 72 -15 -1 -14 -2 3 -12z"/>
<path d="M4470 9974 c-281 -33 -505 -107 -666 -222 l-70 -50 -63 -138 c-69
-152 -121 -298 -146 -414 -20 -90 -33 -410 -17 -410 29 0 42 33 42 109 0 202
90 535 180 666 l33 48 14 -34 c22 -52 34 -131 25 -164 l-9 -30 -29 33 c-16 18
-38 32 -51 32 -13 0 -23 -2 -23 -3 0 -2 9 -39 20 -82 11 -43 20 -88 20 -101 0
-35 -28 -57 -63 -50 -25 5 -28 3 -22 -12 16 -35 16 -221 1 -366 -9 -82 -16
-173 -16 -203 0 -60 27 -193 39 -193 10 0 21 138 21 275 0 61 5 138 10 173 12
74 39 147 50 135 4 -4 25 -48 46 -98 28 -65 52 -103 88 -140 l49 -50 9 45 c23
127 30 157 40 185 6 17 13 31 14 33 1 2 13 -4 27 -13 16 -10 27 -12 31 -6 4 6
-5 18 -19 27 -14 9 -25 23 -25 30 0 20 10 17 41 -12 15 -14 29 -22 32 -17 4 5
-10 24 -29 42 -19 19 -32 36 -29 40 4 3 17 -6 29 -21 12 -16 27 -28 34 -28 18
0 15 9 -13 42 -42 50 -29 69 13 21 21 -24 44 -43 52 -43 11 0 10 3 -2 13 -9 6
-24 30 -32 51 -16 39 -16 39 4 21 27 -25 35 -13 15 24 -23 46 0 38 26 -9 22
-38 44 -56 33 -25 -7 18 0 19 28 4 25 -13 35 -5 18 16 -10 13 -9 15 9 15 21 0
21 0 -4 47 -27 52 -30 63 -15 63 5 0 21 -18 35 -40 14 -22 30 -40 36 -40 8 0
8 4 -1 14 -6 8 -10 25 -8 38 3 22 4 22 20 -7 14 -24 17 -26 17 -10 0 11 -13
38 -29 59 -17 22 -28 42 -25 44 7 8 43 -27 66 -65 12 -18 29 -38 40 -43 30
-17 23 8 -12 41 -17 16 -29 36 -27 46 3 13 12 6 36 -29 18 -27 37 -48 43 -48
11 0 -15 55 -31 65 -5 3 -10 11 -10 18 0 6 18 -6 39 -27 48 -47 72 -45 36 3
-35 49 -22 52 19 5 32 -37 37 -39 105 -44 39 -3 71 -5 71 -4 0 1 -17 19 -37
41 -21 21 -69 74 -106 116 -38 43 -86 86 -107 97 -48 24 -68 26 -50 5 6 -8 10
-19 8 -24 -5 -16 -137 112 -143 140 l-6 26 108 14 c62 8 185 14 288 13 154 -1
199 -5 309 -28 135 -28 275 -77 364 -127 47 -26 52 -27 52 -10 0 10 -9 30 -21
45 -11 14 -19 31 -17 38 2 6 22 -15 44 -48 41 -63 62 -73 75 -37 9 26 -28 107
-66 143 -37 35 -30 11 15 -56 22 -33 40 -63 40 -67 0 -17 -21 6 -71 79 -53 76
-89 109 -89 80 0 -8 5 -18 10 -21 6 -3 10 -14 9 -23 0 -13 -4 -11 -17 8 -9 13
-30 39 -46 57 -22 26 -31 31 -42 22 -16 -13 -45 -11 -244 20 -94 15 -183 21
-295 22 -212 0 -291 -15 -461 -87 -6 -3 -14 6 -18 21 -7 27 -39 65 -56 65 -5
0 -10 -16 -10 -35 0 -19 -4 -35 -10 -35 -5 0 -10 5 -10 10 0 6 -4 10 -10 10
-13 0 -13 -49 1 -90 15 -41 3 -50 -66 -50 -58 0 -109 29 -138 79 l-18 31 58
26 c142 64 348 118 548 144 132 17 415 30 678 30 136 0 247 2 247 4 0 2 -13
17 -28 34 -30 32 -56 39 -235 69 -88 14 -525 26 -607 17z"/>
<path d="M5567 9614 c-9 -25 -14 -51 -11 -56 7 -11 44 65 44 88 0 28 -16 13
-33 -32z"/>
<path d="M2595 9558 c-53 -131 -70 -277 -40 -343 l13 -30 3 55 c2 48 3 44 10
-33 5 -65 15 -103 37 -150 58 -121 59 -120 61 54 2 166 -6 262 -20 253 -5 -3
-9 -15 -9 -27 0 -12 -5 -29 -11 -37 -7 -11 -9 19 -4 103 6 113 2 130 -23 105
-16 -16 -16 7 -1 51 17 49 4 48 -16 -1z"/>
<path d="M5390 9591 c0 -29 47 -94 61 -85 5 3 -3 22 -18 42 -39 54 -43 58 -43
43z"/>
<path d="M6450 9538 c-44 -54 -100 -161 -100 -188 0 -8 14 8 32 35 17 28 53
85 80 128 55 89 49 101 -12 25z"/>
<path d="M6192 9428 c-67 -103 -107 -176 -100 -184 3 -2 36 46 75 108 82 132
96 158 90 164 -2 2 -31 -37 -65 -88z"/>
<path d="M6029 9377 c-77 -129 -112 -197 -106 -203 7 -8 106 151 144 232 20
41 34 76 32 78 -2 2 -34 -46 -70 -107z"/>
<path d="M6151 9463 c-7 -16 -37 -66 -66 -113 -30 -47 -57 -98 -61 -115 -5
-24 1 -19 28 25 19 30 51 80 71 110 20 30 39 70 43 88 8 39 1 41 -15 5z"/>
<path d="M4516 9438 c27 -24 78 -70 114 -103 36 -33 80 -73 99 -90 l34 -30
-23 35 c-43 62 -134 152 -194 192 -78 50 -91 48 -30 -4z"/>
<path d="M4439 9453 c12 -24 155 -161 201 -193 32 -22 30 -18 -18 38 -57 66
-143 147 -174 163 -17 9 -18 8 -9 -8z"/>
<path d="M4560 9466 c0 -3 51 -44 113 -92 61 -48 130 -103 151 -123 39 -35 39
-36 18 -5 -26 37 -80 87 -153 140 -65 48 -129 88 -129 80z"/>
<path d="M4722 9401 c81 -77 181 -161 192 -161 9 0 -191 191 -223 212 -51 34
-40 17 31 -51z"/>
<path d="M5963 9372 c-56 -94 -83 -151 -83 -179 0 -10 7 -3 18 17 10 19 42 79
71 132 29 54 51 102 49 107 -1 5 -26 -30 -55 -77z"/>
<path d="M4811 9393 c34 -32 71 -65 83 -73 12 -8 38 -33 58 -55 20 -22 39 -37
42 -34 7 7 -142 156 -194 194 -59 43 -54 27 11 -32z"/>
<path d="M5016 9351 c21 -37 149 -161 165 -161 12 0 -116 140 -158 173 l-27
21 20 -33z"/>
<path d="M5901 9371 c0 -7 -24 -53 -52 -102 -28 -48 -49 -94 -47 -103 5 -25
110 170 105 196 -2 13 -5 17 -6 9z"/>
<path d="M8207 9374 c-2 -3 22 -30 54 -61 33 -31 61 -54 64 -51 9 9 -54 87
-84 102 -15 8 -31 13 -34 10z"/>
<path d="M4965 9340 c17 -30 99 -121 119 -132 13 -7 5 7 -21 38 -47 55 -110
117 -98 94z"/>
<path d="M5772 9251 c-32 -63 -52 -114 -52 -134 1 -32 1 -31 19 13 10 25 35
81 55 124 54 117 39 114 -22 -3z"/>
<path d="M5126 9292 c21 -38 98 -112 115 -112 17 0 8 11 -65 80 -57 53 -66 59
-50 32z"/>
<path d="M5220 9266 c0 -8 115 -115 119 -111 7 8 -90 115 -105 115 -8 0 -14
-2 -14 -4z"/>
<path d="M2707 9196 c-19 -48 -1 -391 29 -566 6 -33 7 -33 15 -12 18 47 30
157 30 276 0 129 -6 160 -26 152 -14 -5 -25 33 -26 93 0 20 -4 45 -8 55 -7 18
-8 18 -14 2z"/>
<path d="M7571 8925 c-12 -27 -25 -66 -27 -85 -4 -29 1 -22 26 33 17 37 30 76
28 85 -3 11 -12 -1 -27 -33z"/>
<path d="M3244 8805 c0 -71 1 -99 3 -62 2 37 2 96 0 130 -2 34 -3 4 -3 -68z"/>
<path d="M2800 8746 c0 -67 -3 -151 -6 -185 -7 -65 6 -84 24 -33 9 23 11 18
11 -36 1 -80 16 -72 26 13 3 36 11 68 17 71 10 7 3 -109 -12 -196 -11 -58 -5
-63 17 -14 25 56 23 197 -5 289 -20 68 -21 69 -21 28 -1 -36 -14 -63 -26 -51
-2 2 1 38 6 81 7 53 6 90 -1 117 -20 73 -30 44 -30 -84z"/>
<path d="M3768 8813 c11 -16 30 -56 42 -91 27 -74 78 -151 89 -133 6 9 11 8
21 -4 7 -8 17 -15 22 -15 17 0 -86 184 -127 227 -47 49 -78 59 -47 16z"/>
<path d="M7692 8800 c0 -19 2 -27 5 -17 2 9 2 25 0 35 -3 9 -5 1 -5 -18z"/>
<path d="M9899 8731 c-140 -38 -297 -136 -358 -224 -36 -53 -53 -117 -41 -158
11 -38 48 -89 64 -89 7 0 65 48 128 108 90 84 134 117 207 156 51 27 108 61
126 77 41 37 69 93 61 125 -6 22 -11 24 -64 23 -31 0 -87 -8 -123 -18z"/>
<path d="M3265 8628 c-4 -62 -8 -160 -10 -218 -2 -78 -8 -122 -25 -170 -24
-70 -40 -240 -22 -240 16 0 49 89 65 175 17 91 33 327 17 260 -5 -22 -14 -53
-20 -70 -9 -26 -9 -24 -5 20 9 84 18 355 13 355 -3 0 -9 -51 -13 -112z"/>
<path d="M3162 8642 c-4 -130 -100 -514 -189 -762 -112 -309 -274 -625 -461
-895 -77 -112 -75 -111 -68 -20 8 93 34 174 84 267 20 37 33 70 30 73 -11 11
-54 -17 -76 -50 -25 -39 -42 -45 -42 -14 0 20 -1 20 -31 2 -51 -29 -120 -113
-156 -190 -68 -142 -65 -280 8 -348 33 -31 32 -25 -8 34 -23 35 -31 91 -13 91
6 0 19 -20 29 -44 11 -24 27 -46 36 -50 10 -3 19 -5 20 -4 9 14 55 157 55 172
0 40 11 6 18 -53 l7 -62 76 103 c117 159 179 252 261 388 284 471 438 946 426
1315 -2 61 -5 82 -6 47z"/>
<path d="M6365 8647 c-113 -52 -178 -92 -227 -139 -78 -76 -76 -95 4 -29 40
33 127 91 193 130 130 77 140 89 30 38z"/>
<path d="M4636 8554 c150 -115 186 -145 180 -151 -2 -3 -53 33 -112 78 -109
83 -220 143 -284 153 -31 6 -29 4 18 -18 28 -14 114 -65 190 -114 163 -106
179 -115 193 -106 6 3 27 -9 47 -27 l35 -34 -24 35 c-37 55 -118 132 -188 179
-64 44 -178 111 -188 111 -3 0 57 -48 133 -106z"/>
<path d="M3824 8607 c18 -44 56 -100 63 -93 6 5 -34 77 -62 111 -14 18 -14 17
-1 -18z"/>
<path d="M7299 8514 c-42 -89 -89 -208 -89 -222 0 -4 14 16 30 43 35 59 114
254 106 263 -3 3 -24 -35 -47 -84z"/>
<path d="M8761 8555 c42 -75 199 -271 199 -249 0 11 -143 202 -190 254 l-32
35 23 -40z"/>
<path d="M6250 8529 c-132 -82 -233 -183 -277 -277 -33 -69 -28 -86 7 -25 50
86 201 236 330 325 49 34 4 16 -60 -23z"/>
<path d="M5207 8539 c-53 -13 -128 -53 -157 -84 l-25 -28 32 17 c17 9 84 26
148 39 64 12 112 26 108 31 -4 5 20 6 55 3 73 -6 74 7 1 22 -58 13 -108 13
-162 0z"/>
<path d="M2910 8439 c0 -23 -5 -71 -11 -106 -6 -35 -8 -76 -4 -91 7 -23 10
-15 21 48 15 92 17 177 4 185 -6 4 -10 -10 -10 -36z"/>
<path d="M6424 8450 c-97 -20 -163 -62 -198 -123 -57 -99 -38 -112 65 -46 35
23 79 48 97 56 32 13 32 13 32 -14 0 -36 -30 -101 -61 -133 -13 -14 -68 -59
-122 -99 -85 -64 -117 -95 -117 -115 0 -3 22 -6 48 -6 l48 0 48 70 c54 79 99
119 177 155 111 52 275 26 410 -64 34 -22 63 -41 65 -41 2 0 -1 10 -6 23 -5
12 -17 54 -25 92 -19 84 -50 133 -108 174 -87 60 -251 93 -353 71z"/>
<path d="M7720 8378 c-14 -35 -27 -67 -29 -73 -2 -5 3 -4 12 3 20 17 50 94 45
116 -1 10 -14 -11 -28 -46z"/>
<path d="M5198 8405 c-60 -16 -112 -49 -139 -86 -11 -16 -18 -29 -16 -29 3 0
30 11 60 25 72 33 173 54 306 63 l106 7 -67 18 c-78 20 -183 21 -250 2z"/>
<path d="M3575 8366 c19 -90 121 -241 203 -301 70 -51 70 -43 -1 28 -70 69
-113 127 -170 232 -23 42 -36 59 -32 41z"/>
<path d="M2937 8305 c-4 -39 -9 -97 -12 -130 -5 -47 -4 -56 5 -42 18 28 36
191 24 218 -9 20 -12 13 -17 -46z"/>
<path d="M3298 8215 c-43 -250 -53 -340 -40 -383 6 -20 13 -46 16 -57 2 -12 4
-7 5 12 0 17 6 35 13 39 11 7 8 -61 -8 -133 -4 -22 -3 -33 5 -33 6 0 11 10 11
23 0 12 6 54 14 92 18 88 27 204 16 185 -17 -27 -24 1 -12 45 7 25 12 60 11
78 l-1 32 -8 -30 c-5 -16 -16 -65 -25 -108 -30 -136 -28 -76 5 142 38 254 36
321 -2 96z"/>
<path d="M4222 8316 c-89 -29 -162 -118 -177 -212 -8 -53 16 -142 44 -168 19
-17 20 -17 41 24 58 113 168 186 267 178 70 -6 101 -29 138 -104 62 -125 93
-150 81 -66 -10 72 -48 139 -135 234 -43 47 -83 93 -88 102 -12 23 -116 30
-171 12z"/>
<path d="M7307 8289 c-21 -21 -72 -58 -115 -82 -83 -49 -135 -96 -151 -139
-13 -34 -7 -34 58 -8 78 31 138 72 217 151 59 58 71 75 64 89 -17 31 -35 28
-73 -11z"/>
<path d="M5245 8303 c-42 -9 -111 -37 -143 -58 -31 -21 -35 -22 -75 -8 -93 33
-229 -6 -298 -84 -63 -72 -94 -177 -71 -242 l11 -31 -67 0 -67 0 -12 59 c-6
33 -19 71 -29 85 -45 60 -150 76 -226 34 -58 -32 -80 -67 -86 -132 -4 -53 -5
-54 -29 -45 -13 5 -50 9 -82 9 -66 0 -124 -30 -129 -67 -3 -18 3 -21 60 -27
35 -4 155 0 267 9 239 18 421 20 421 5 0 -6 -33 -44 -73 -84 -101 -101 -199
-150 -301 -150 -82 -1 -125 16 -182 72 -38 37 -38 37 -14 40 14 2 30 8 35 14
7 7 -27 9 -110 4 -184 -9 -292 -41 -375 -111 -53 -44 -33 -45 68 -4 43 17 97
38 120 45 l44 14 91 -51 c244 -135 369 -156 527 -89 36 15 125 63 197 107 74
45 164 90 202 103 62 20 73 21 100 9 17 -8 31 -16 31 -19 1 -3 2 -31 3 -62 1
-31 7 -62 12 -67 7 -7 47 7 125 45 210 101 296 117 389 69 l49 -24 7 22 8 22
4 -23 c4 -19 7 -21 19 -11 11 9 14 8 14 -4 0 -8 11 -22 25 -31 l25 -16 0 65
c0 96 -28 173 -120 328 -30 51 -18 47 19 -7 56 -82 97 -106 62 -38 -23 45 -75
94 -129 121 -101 50 -271 59 -390 19 -40 -14 -72 -21 -72 -17 0 10 56 52 98
73 86 44 229 38 340 -14 l64 -30 -7 28 c-17 69 -70 121 -144 142 -35 10 -166
12 -206 3z"/>
<path d="M2977 8188 c-19 -62 -22 -108 -8 -108 13 0 34 98 29 135 -3 27 -5 24
-21 -27z"/>
<path d="M6496 8195 c-81 -21 -133 -92 -124 -171 4 -32 2 -34 -32 -40 -66 -11
-110 -25 -110 -34 0 -14 48 -24 100 -23 25 1 157 4 293 6 l248 4 27 27 c31 30
26 37 -41 58 -37 11 -75 6 -129 -17 -16 -6 -18 -1 -18 40 0 117 -91 181 -214
150z"/>
<path d="M3001 8087 c-46 -141 -115 -298 -236 -543 -57 -115 -103 -210 -101
-211 1 -1 34 52 74 120 94 161 203 389 242 507 32 97 64 220 58 226 -2 1 -19
-43 -37 -99z"/>
<path d="M7903 8146 c8 -21 423 -803 505 -951 142 -256 285 -493 389 -643 36
-51 63 -95 61 -97 -2 -2 -35 11 -73 30 -38 18 -71 32 -74 30 -8 -8 124 -85
187 -109 66 -25 183 -56 212 -56 8 0 -10 11 -40 23 -104 43 -196 119 -277 228
-43 58 -143 229 -143 244 0 5 24 -27 53 -71 51 -79 194 -264 203 -264 3 0 -46
74 -108 165 -280 408 -287 418 -314 500 -95 280 -276 619 -440 821 -75 92
-148 171 -141 150z"/>
<path d="M5944 8105 c-3 -25 -4 -76 -2 -115 5 -90 24 -117 109 -150 48 -19 79
-40 124 -85 63 -63 149 -112 275 -156 57 -20 85 -23 230 -24 144 0 174 3 237
23 79 24 145 69 180 121 29 42 29 54 1 66 -14 6 -30 31 -43 64 -19 52 -55 84
-73 67 -4 -4 -9 -35 -12 -69 l-5 -62 -110 -49 c-60 -27 -145 -55 -188 -64 -72
-14 -84 -14 -159 2 -94 20 -200 60 -308 117 -139 72 -177 117 -199 239 -13 74
-30 120 -42 120 -4 0 -11 -20 -15 -45z"/>
<path d="M3590 8076 c0 -2 30 -27 68 -54 75 -56 151 -97 197 -107 19 -4 6 6
-35 27 -36 19 -92 52 -125 74 -65 45 -105 67 -105 60z"/>
<path d="M5673 8039 c13 -19 43 -70 65 -114 38 -76 71 -128 72 -113 0 12 -80
180 -101 209 -11 16 -30 34 -41 40 -18 10 -18 8 5 -22z"/>
<path d="M7240 8055 c-25 -8 -58 -26 -75 -40 l-30 -26 175 5 c164 4 211 11
268 39 44 21 3 31 -145 34 -110 2 -160 -1 -193 -12z"/>
<path d="M7831 8057 c-2 -16 53 -211 98 -347 79 -238 164 -424 285 -628 66
-110 196 -302 196 -289 0 4 -32 66 -71 138 -97 179 -191 377 -315 664 -40 94
-74 162 -74 153 0 -9 9 -37 20 -63 22 -50 25 -75 11 -75 -11 0 -41 118 -41
159 0 23 -4 29 -15 25 -10 -4 -15 0 -15 12 -1 49 -75 286 -79 251z"/>
<path d="M7780 8032 c0 -35 42 -231 63 -289 24 -70 75 -169 83 -161 8 9 -67
280 -101 366 -34 85 -45 105 -45 84z"/>
<path d="M5765 7970 c17 -58 66 -132 80 -119 7 8 -33 83 -60 114 -26 29 -26
29 -20 5z"/>
<path d="M12382 7920 c0 -37 4 -50 15 -50 11 0 13 11 11 47 -4 65 -26 68 -26
3z"/>
<path d="M3550 7929 c26 -47 114 -86 240 -105 41 -6 43 -5 31 10 -8 10 -27 24
-42 32 -30 15 -219 84 -232 84 -4 0 -3 -9 3 -21z"/>
<path d="M3115 7928 c-2 -7 -39 -110 -81 -228 -42 -118 -107 -305 -144 -415
-38 -110 -71 -208 -76 -219 -6 -15 -4 -17 14 -11 12 3 22 4 22 1 0 -25 -28
-124 -56 -194 -19 -48 -34 -89 -34 -92 1 -3 12 8 25 25 19 23 27 27 37 17 9
-9 7 -21 -10 -57 -22 -45 -29 -95 -14 -95 10 0 110 272 157 426 76 250 128
495 158 747 12 100 13 125 2 95z"/>
<path d="M7073 7927 c50 -41 320 -101 427 -95 l55 3 -80 26 c-105 35 -255 67
-347 75 -65 5 -71 4 -55 -9z"/>
<path d="M8891 7807 c-49 -110 -55 -130 -58 -202 -2 -68 -1 -75 8 -45 5 19 33
106 60 192 28 87 49 162 47 167 -1 5 -27 -45 -57 -112z"/>
<path d="M12405 7839 c-74 -76 -195 -168 -292 -221 -41 -22 -72 -42 -70 -45 8
-8 112 34 162 65 58 36 75 32 26 -7 -81 -62 -80 -61 -39 -51 47 10 111 43 159
81 62 49 125 167 117 219 -3 18 -12 12 -63 -41z"/>
<path d="M6346 7847 c-43 -10 -13 -12 230 -13 297 -2 291 10 -11 20 -119 4
-185 2 -219 -7z"/>
<path d="M7135 7819 c-7 -21 7 -39 32 -39 6 0 54 -21 106 -46 108 -52 156 -59
188 -27 l20 20 -48 31 c-94 60 -153 82 -225 82 -59 0 -67 -2 -73 -21z"/>
<path d="M3332 7735 c-27 -114 -45 -228 -40 -257 4 -23 4 -23 10 2 26 116 59
311 56 326 -2 10 -14 -21 -26 -71z"/>
<path d="M11712 7760 c-144 -23 -177 -45 -52 -36 85 7 175 29 185 47 7 11 9
11 -133 -11z"/>
<path d="M4187 7753 c-15 -14 -5 -21 42 -27 54 -7 81 -1 81 20 0 10 -15 14
-58 14 -32 0 -62 -3 -65 -7z"/>
<path d="M3633 7740 c-67 -14 -113 -44 -113 -74 0 -5 288 42 330 54 l45 13
-40 8 c-51 10 -168 9 -222 -1z"/>
<path d="M11877 7735 c-11 -7 -49 -16 -85 -20 -37 -3 -76 -10 -87 -14 -36 -15
47 -24 108 -11 59 12 92 30 86 48 -3 7 -10 6 -22 -3z"/>
<path d="M8768 7629 c-39 -117 -62 -209 -55 -216 14 -14 102 278 95 314 -2 9
-20 -36 -40 -98z"/>
<path d="M12140 7705 c-19 -13 -48 -27 -65 -30 l-30 -6 28 16 c40 23 29 27
-29 11 -27 -8 -104 -24 -172 -37 -138 -26 -141 -38 -12 -46 134 -10 278 33
318 95 18 28 6 27 -38 -3z"/>
<path d="M5746 7674 c-3 -26 -6 -56 -5 -68 1 -33 27 43 28 82 1 49 -15 38 -23
-14z"/>
<path d="M5783 7637 c-18 -39 -16 -57 5 -57 22 0 57 -36 67 -67 7 -27 13 -27
100 -11 l65 13 0 37 c0 27 -8 47 -29 70 -25 29 -35 32 -95 36 -57 4 -67 2 -72
-14 -15 -46 -18 -48 -23 -14 l-6 34 -12 -27z"/>
<path d="M4842 7636 c-18 -21 -33 -57 -68 -154 -46 -129 -52 -134 -101 -89
l-38 36 -80 -81 c-221 -224 -522 -387 -820 -444 -49 -10 -93 -22 -96 -27 -4
-5 -12 -49 -18 -98 -14 -106 -19 -122 -38 -115 -8 3 -23 6 -33 6 -17 0 -17 3
1 78 17 72 26 172 14 160 -3 -3 -15 -59 -26 -124 -18 -107 -57 -224 -66 -197
-2 6 9 66 25 134 32 135 49 250 35 234 -5 -5 -19 -64 -31 -130 -12 -66 -30
-147 -41 -180 l-20 -60 5 65 c3 36 17 121 30 190 28 145 27 137 14 124 -5 -5
-21 -65 -35 -132 -26 -129 -44 -181 -45 -129 0 15 12 85 26 155 26 130 45 328
22 232 -23 -99 -29 -122 -32 -119 -1 2 2 82 7 176 8 131 7 190 -2 243 -7 38
-16 70 -21 70 -4 0 -11 -53 -15 -117 -13 -215 -52 -489 -63 -441 -2 10 3 89
12 175 23 235 28 364 17 398 -8 27 -9 23 -10 -30 -1 -69 -14 -100 -26 -63 -5
16 -12 -14 -21 -97 -58 -506 -72 -607 -110 -788 -29 -136 -71 -288 -84 -301
-14 -14 -150 57 -208 109 -61 55 -123 139 -181 245 -47 87 -56 78 -10 -11 16
-33 28 -66 26 -72 -2 -7 -36 51 -75 129 -39 77 -81 149 -92 159 -20 18 -20 18
-14 -16 31 -170 87 -282 199 -395 135 -137 281 -202 470 -211 135 -7 200 6
304 57 96 49 155 105 256 245 190 265 236 316 393 433 160 119 366 220 560
274 45 13 82 27 82 31 0 5 -13 39 -30 77 -20 46 -30 85 -30 119 0 47 2 52 33
68 25 14 54 18 140 17 122 0 120 -3 71 83 -37 64 -140 128 -162 99z"/>
<path d="M3770 7549 c-85 -49 -136 -94 -160 -144 -29 -60 -20 -68 13 -12 18
29 57 67 117 112 78 58 98 75 88 75 -2 0 -28 -14 -58 -31z"/>
<path d="M7871 7410 c-3 -266 76 -661 183 -914 9 -22 14 -41 12 -43 -10 -11
-76 62 -94 105 -37 85 -93 312 -127 506 -4 26 -9 35 -15 27 -4 -8 -2 -39 6
-70 15 -63 19 -150 6 -135 -5 5 -14 46 -21 92 -13 86 -35 152 -51 152 -5 0 -3
-21 5 -47 7 -27 30 -122 50 -213 38 -167 84 -312 111 -346 13 -18 14 -17 7 11
-3 16 -17 56 -30 87 -24 60 -30 108 -13 108 6 0 10 -9 10 -21 0 -11 18 -68 40
-126 22 -59 40 -113 40 -121 0 -12 -14 -14 -72 -10 -95 6 -159 39 -228 115
l-52 58 21 -43 c12 -23 26 -55 32 -70 23 -61 -64 45 -176 213 -62 94 -129 188
-149 210 l-37 40 21 -40 c11 -22 59 -92 106 -155 81 -110 153 -235 142 -246
-3 -2 -50 64 -105 148 -91 140 -189 265 -200 255 -2 -3 34 -56 81 -118 80
-107 174 -265 163 -275 -8 -8 -58 61 -181 249 -64 97 -119 177 -122 177 -13 0
11 -41 111 -190 57 -85 111 -173 120 -195 l16 -40 -38 37 c-21 21 -78 101
-127 178 -49 77 -104 157 -123 178 l-35 37 23 -40 c13 -22 51 -81 86 -131 59
-86 133 -209 133 -222 0 -17 -69 64 -122 143 -90 135 -128 184 -149 196 -10 5
18 -43 63 -108 46 -65 96 -138 112 -163 l29 -45 -27 25 c-15 13 -58 70 -96
125 -71 105 -146 195 -161 195 -5 0 20 -37 54 -82 76 -100 160 -218 154 -218
-2 0 -66 72 -141 159 -232 270 -345 362 -529 431 -73 28 -222 60 -278 60 -54
0 -60 6 -89 80 -22 55 -46 90 -62 90 -4 0 -8 -33 -8 -72 0 -57 -6 -85 -25
-126 -14 -30 -25 -56 -25 -58 0 -2 26 -4 58 -4 280 -2 587 -161 953 -493 87
-80 30 -47 -109 62 -59 45 -125 92 -147 102 l-40 20 45 -41 c236 -216 573
-391 859 -447 119 -23 317 -22 396 1 150 45 256 131 255 208 -1 20 -3 18 -19
-12 -23 -43 -57 -75 -94 -89 -25 -10 -29 -8 -51 27 -72 115 -127 259 -226 590
-43 147 -86 285 -94 307 l-15 40 0 -75z"/>
<path d="M9157 7380 c-88 -34 -147 -95 -162 -165 -6 -30 -6 -30 14 6 26 48 98
112 160 144 47 23 62 36 44 35 -5 -1 -30 -9 -56 -20z"/>
<path d="M9333 7380 c81 -15 117 -77 126 -215 l6 -100 14 53 c33 132 -41 274
-142 271 l-42 -1 38 -8z"/>
<path d="M4930 7277 c0 -14 14 -48 31 -75 28 -46 34 -50 80 -56 27 -4 96 -23
152 -43 175 -62 275 -85 337 -79 50 5 137 32 129 40 -2 2 -30 -1 -63 -7 -116
-21 -222 12 -380 120 -104 71 -186 112 -241 120 -43 5 -45 5 -45 -20z"/>
<path d="M2197 7231 c-52 -69 -100 -179 -117 -268 -7 -35 -11 -105 -8 -160 8
-185 81 -278 227 -289 41 -3 48 -1 26 4 -141 39 -205 136 -205 314 0 141 37
284 105 405 14 25 24 48 21 50 -2 2 -24 -23 -49 -56z"/>
<path d="M5858 7280 c-50 -15 -109 -54 -128 -85 -21 -35 -30 -80 -15 -80 19 1
285 135 285 144 0 24 -89 37 -142 21z"/>
<path d="M1907 7189 c-135 -232 -123 -592 22 -640 20 -7 77 -53 140 -114 121
-116 151 -134 230 -142 65 -6 60 7 -9 26 -92 27 -176 85 -206 143 -17 32 -16
35 18 52 12 6 23 17 26 24 3 11 0 12 -16 3 -42 -22 -62 -14 -85 37 -19 40 -22
63 -21 162 1 75 8 148 22 210 21 97 21 126 2 74 -34 -87 -44 -154 -45 -286 0
-75 -3 -130 -8 -123 -4 8 -14 60 -22 117 -19 123 -23 138 -24 76 -1 -39 13
-125 36 -227 l6 -24 -32 22 c-127 90 -150 359 -47 531 50 83 55 95 46 109 -5
10 -15 1 -33 -30z"/>
<path d="M3021 7100 c-7 -36 -30 -126 -51 -200 -48 -171 -62 -231 -56 -237 3
-3 9 12 15 33 6 22 27 89 46 149 36 112 69 272 63 303 -2 9 -10 -12 -17 -48z"/>
<path d="M3078 7145 c-3 -6 -9 -44 -12 -85 -10 -104 -16 -136 -26 -120 -14 23
-59 -144 -90 -334 -16 -99 -34 -197 -40 -216 -16 -57 -11 -58 22 -5 50 78 106
217 140 344 27 100 31 133 31 241 0 117 -12 197 -25 175z"/>
<path d="M7652 7108 c8 -7 25 -30 37 -50 13 -21 29 -38 36 -38 9 0 0 19 -23
50 -20 27 -43 50 -51 50 -12 0 -12 -2 1 -12z"/>
<path d="M9550 7043 c-1 -235 -197 -404 -454 -391 -106 6 -191 33 -249 79 -21
17 -41 29 -43 26 -9 -9 82 -76 138 -102 31 -14 84 -31 118 -37 175 -30 381 76
461 238 25 50 32 80 36 148 3 47 3 86 -1 86 -3 0 -6 -21 -6 -47z"/>
<path d="M7630 7066 c0 -17 82 -144 110 -171 17 -16 30 -26 30 -22 0 3 -30 48
-66 99 -78 109 -74 103 -74 94z"/>
<path d="M8705 7020 c48 -51 218 -160 302 -192 48 -19 104 -32 149 -35 63 -5
78 -3 129 21 62 28 72 46 12 21 -51 -21 -171 -19 -238 4 -69 23 -143 61 -227
115 -37 23 -87 55 -112 71 l-45 28 30 -33z"/>
<path d="M7601 6993 c24 -45 65 -90 74 -81 5 5 -10 26 -70 93 l-27 30 23 -42z"/>
<path d="M7561 6975 c30 -54 178 -262 197 -278 13 -10 14 -9 7 3 -57 97 -145
221 -208 294 -14 16 -13 11 4 -19z"/>
<path d="M5082 6951 c-222 -170 -343 -302 -421 -460 -40 -78 -34 -92 7 -18 80
141 246 323 401 439 76 57 107 89 84 88 -4 -1 -36 -23 -71 -49z"/>
<path d="M5768 6975 c15 -30 112 -149 112 -138 0 17 -57 97 -90 128 -23 21
-30 24 -22 10z"/>
<path d="M6249 6925 c43 -35 92 -72 108 -82 17 -10 52 -45 79 -79 64 -79 168
-192 163 -177 -9 26 -135 176 -200 237 -67 64 -203 166 -221 166 -5 0 27 -29
71 -65z"/>
<path d="M5923 6948 c15 -18 104 -147 198 -286 260 -384 362 -508 503 -616 90
-69 106 -73 31 -7 -117 103 -226 234 -449 546 -157 217 -293 395 -303 395 -3
0 6 -15 20 -32z"/>
<path d="M7416 6928 c32 -52 195 -268 202 -268 2 0 -2 10 -10 23 -8 12 -40 63
-71 112 -58 94 -122 175 -138 175 -5 0 3 -19 17 -42z"/>
<path d="M7555 6905 c61 -88 175 -235 181 -235 18 0 -169 256 -212 290 -10 8
4 -16 31 -55z"/>
<path d="M7461 6945 c8 -11 61 -83 119 -161 58 -77 122 -165 142 -195 66 -95
41 -37 -33 76 -73 112 -166 231 -215 275 -20 18 -23 19 -13 5z"/>
<path d="M9618 6903 c-16 -116 -117 -253 -234 -315 -105 -56 -273 -75 -379
-43 -60 18 -71 12 -19 -10 108 -45 265 -47 366 -4 168 70 283 224 276 367 l-3
57 -7 -52z"/>
<path d="M3135 6903 c-3 -21 -24 -96 -46 -166 -21 -71 -39 -145 -38 -165 l1
-37 9 40 c5 22 25 87 43 145 31 96 55 220 43 220 -3 0 -8 -17 -12 -37z"/>
<path d="M5875 6920 c30 -52 155 -240 160 -240 14 0 -123 218 -150 240 -17 13
-18 13 -10 0z"/>
<path d="M4408 6871 c-140 -82 -253 -185 -327 -301 -56 -86 -52 -97 6 -19 77
106 222 238 373 341 45 30 16 19 -52 -21z"/>
<path d="M7690 6875 c0 -13 72 -117 77 -111 3 2 -3 17 -11 33 -20 37 -66 91
-66 78z"/>
<path d="M8450 6820 c-1 -95 -24 -192 -67 -279 -30 -60 -59 -98 -143 -183
-109 -110 -110 -117 -4 -42 204 144 296 368 225 544 -8 21 -10 14 -11 -40z"/>
<path d="M6440 6839 c19 -17 64 -57 100 -89 36 -31 97 -100 135 -153 39 -53
73 -97 78 -97 18 0 -75 130 -151 210 -78 83 -169 160 -188 160 -5 0 7 -14 26
-31z"/>
<path d="M6585 6779 c50 -52 126 -143 169 -204 94 -130 109 -147 71 -80 -80
142 -236 329 -305 365 -14 7 16 -29 65 -81z"/>
<path d="M4742 6716 c-55 -68 -115 -150 -134 -183 -36 -61 -82 -172 -74 -180
2 -2 9 11 16 31 15 47 98 176 201 316 91 123 103 140 95 140 -3 0 -49 -56
-104 -124z"/>
<path d="M2476 6753 c-9 -27 10 -152 35 -238 26 -86 92 -223 130 -267 24 -27
18 -11 -30 92 -70 146 -101 251 -101 335 0 67 -22 117 -34 78z"/>
<path d="M6732 6701 c37 -40 102 -125 144 -189 94 -142 109 -160 60 -67 -59
110 -120 195 -179 254 -83 82 -100 84 -25 2z"/>
<path d="M5654 6698 c6 -41 42 -166 73 -248 13 -35 -68 57 -103 117 -43 75
-86 130 -114 150 -18 13 -22 9 -49 -52 -51 -113 -148 -242 -167 -223 -2 3 20
45 50 94 51 84 86 177 73 191 -4 3 -9 -3 -13 -13 -24 -73 -54 -137 -95 -199
-74 -114 -78 -107 -30 45 22 67 27 130 12 130 -19 0 -101 -84 -148 -152 -177
-257 -310 -553 -327 -723 -5 -58 -5 -57 17 30 26 102 70 206 98 231 18 16 19
16 19 -25 0 -22 10 -63 22 -89 29 -64 151 -182 271 -263 l98 -67 -33 -12 -33
-13 35 -7 c19 -5 90 -4 158 1 132 11 225 25 182 29 -23 1 -22 3 10 15 19 7 50
14 68 14 23 1 32 6 32 19 0 32 45 90 141 181 110 103 132 141 127 211 l-3 49
32 -25 c50 -38 172 -117 233 -151 30 -16 82 -45 115 -64 45 -24 56 -28 45 -13
-20 26 -30 34 -141 114 -90 65 -166 136 -155 147 2 3 44 -22 93 -54 253 -169
439 -249 671 -287 53 -9 37 1 -50 30 -302 100 -542 238 -718 414 -109 108
-165 187 -197 279 -23 67 -43 96 -62 90 -11 -4 61 -178 121 -292 20 -37 33
-67 29 -67 -15 0 -113 95 -153 149 -25 32 -86 126 -137 210 -51 83 -95 151
-98 151 -3 0 -2 -23 1 -52z"/>
<path d="M4607 6627 c-71 -120 -150 -282 -145 -297 2 -5 52 84 111 196 60 113
107 207 105 209 -2 3 -34 -46 -71 -108z"/>
<path d="M8562 6635 c-23 -165 -92 -336 -155 -380 -30 -21 -43 -18 -23 4 22
25 46 91 38 109 -3 8 -19 -16 -38 -57 -100 -215 -363 -350 -661 -339 l-103 4
33 -19 32 -18 -55 7 c-85 10 -202 50 -349 120 -74 35 -136 62 -138 60 -7 -6
104 -70 229 -132 65 -32 116 -59 114 -62 -7 -6 -111 25 -211 63 -81 31 -192
89 -267 139 -16 10 -28 16 -28 13 0 -13 162 -114 253 -157 174 -83 351 -117
513 -99 77 8 218 46 182 48 -29 2 -21 21 8 21 92 0 235 64 323 146 58 54 85
65 39 17 -38 -41 -11 -36 35 6 44 40 70 50 82 31 3 -5 51 -33 105 -61 115 -58
160 -102 160 -154 0 -19 -3 -35 -7 -35 -5 0 -62 30 -128 66 -177 98 -211 108
-102 31 68 -49 159 -96 224 -117 37 -11 48 -22 84 -84 137 -232 271 -378 417
-455 38 -20 25 -5 -35 40 -87 64 -230 206 -276 274 -43 63 -89 164 -81 177 9
13 83 9 122 -7 21 -10 82 -62 147 -129 130 -134 203 -180 508 -323 213 -99
277 -133 372 -197 127 -85 221 -196 264 -311 26 -70 44 -207 36 -275 l-7 -55
-22 55 c-72 174 -205 368 -316 458 l-45 37 32 -40 c18 -22 69 -85 113 -140
157 -193 202 -295 206 -470 l3 -110 -13 65 c-44 208 -122 335 -375 610 -124
134 -173 194 -189 233 -10 23 -42 39 -42 21 0 -16 119 -182 226 -314 193 -240
262 -355 309 -515 66 -229 48 -537 -40 -691 -24 -40 -93 -109 -101 -101 -3 2
5 26 16 53 56 129 79 314 60 474 -31 268 -138 529 -278 679 l-53 56 6 -47 c3
-26 16 -90 29 -143 23 -93 22 -107 -2 -83 -18 18 -15 7 18 -66 64 -142 107
-396 97 -572 -11 -179 -53 -321 -119 -410 -39 -52 -49 -55 -37 -11 4 17 20
127 34 242 14 116 29 225 35 244 5 19 8 36 6 38 -8 8 -99 -84 -135 -137 -90
-136 -128 -309 -111 -506 13 -138 41 -242 99 -359 72 -144 159 -240 266 -294
45 -23 159 -51 208 -51 48 0 29 17 -38 34 -86 21 -165 58 -190 86 l-20 23 20
-7 c11 -4 52 -15 90 -23 135 -29 316 8 439 91 l64 43 -29 -108 c-55 -211 -130
-337 -248 -416 -96 -64 -175 -87 -296 -87 -153 0 -285 44 -442 148 -73 48
-193 158 -252 231 l-32 40 18 -35 c27 -52 227 -248 310 -305 40 -26 71 -50 68
-53 -7 -7 -113 55 -187 110 -89 65 -179 164 -251 273 -50 76 -58 85 -52 55 40
-218 181 -417 355 -502 136 -67 294 -92 438 -69 140 22 195 51 376 202 66 54
123 99 128 99 4 0 8 -35 8 -77 0 -219 -166 -323 -540 -340 -161 -8 -141 -24
30 -25 106 -1 267 30 356 67 49 20 51 19 23 -11 -62 -67 -194 -106 -354 -106
-97 0 -130 5 -283 44 -171 44 -210 47 -96 7 150 -53 395 -83 555 -68 41 4 76
5 77 4 11 -10 -88 -27 -183 -32 -81 -4 -153 1 -274 16 -90 12 -165 20 -167 18
-12 -12 163 -50 299 -65 86 -9 157 -20 157 -24 0 -11 -150 -21 -228 -14 -134
12 -280 55 -407 119 -54 27 -58 27 -40 7 51 -57 279 -140 430 -156 96 -11 96
-21 1 -29 -95 -8 -234 6 -326 32 -78 22 -195 84 -265 141 -141 115 -250 308
-293 523 l-19 93 -18 -53 c-79 -239 -6 -411 300 -711 116 -114 177 -190 213
-267 23 -50 27 -71 27 -148 0 -77 -4 -100 -29 -158 -16 -37 -30 -66 -31 -65
-2 2 3 28 11 58 36 139 -6 321 -98 426 -37 42 -113 94 -137 94 -9 0 -3 -8 14
-19 134 -82 219 -264 193 -411 l-12 -65 -8 63 c-11 78 -42 164 -70 188 -11 11
-19 15 -16 9 2 -5 14 -31 26 -57 62 -130 48 -305 -30 -385 -44 -46 -51 -41
-20 14 23 41 26 59 26 133 -1 80 -17 158 -44 212 -16 30 -71 88 -84 88 -5 0 0
-10 12 -23 32 -35 72 -122 72 -158 0 -32 -2 -30 -29 28 -29 60 -62 103 -80
103 -5 0 6 -23 25 -51 43 -65 67 -147 66 -227 -1 -71 -30 -149 -43 -116 -4 10
-8 31 -8 45 -1 42 -36 160 -66 222 -31 65 -97 143 -144 170 -26 15 -23 10 17
-31 59 -60 114 -162 141 -262 52 -186 1 -335 -132 -385 -26 -10 -49 -16 -51
-14 -3 2 2 33 11 69 73 311 -191 600 -503 552 -42 -7 -83 -17 -92 -23 -15 -9
-15 -10 2 -4 11 3 44 8 75 11 184 19 402 -108 483 -283 61 -130 37 -278 -53
-324 -52 -26 -152 -36 -201 -20 -38 13 -102 71 -77 71 8 0 41 13 74 28 64 31
121 86 131 129 9 33 -7 93 -27 106 -21 13 -111 -16 -286 -94 -225 -99 -300
-121 -432 -127 -118 -5 -184 4 -278 39 -29 10 -53 17 -53 14 0 -3 23 -16 51
-31 28 -14 49 -28 46 -31 -10 -9 -165 35 -246 70 -107 47 -214 111 -361 219
-67 49 -124 87 -126 86 -14 -14 294 -246 420 -317 53 -30 95 -56 92 -58 -7 -7
-176 66 -240 104 -81 47 -189 129 -302 231 -138 122 -99 69 55 -77 73 -68 130
-126 127 -128 -9 -9 -106 50 -186 115 -187 149 -355 390 -422 602 -18 60 -23
97 -22 180 1 120 18 176 79 260 51 69 36 63 -19 -8 -96 -125 -162 -283 -191
-461 -14 -80 -16 -140 -12 -274 6 -208 31 -319 106 -472 97 -198 220 -309 400
-361 44 -13 42 -13 -59 -10 -160 4 -258 47 -408 176 -126 109 -233 263 -298
428 -20 51 -39 92 -44 92 -9 0 -6 -19 21 -109 11 -36 24 -70 30 -77 7 -9 0
-15 -28 -25 -21 -7 -69 -27 -108 -46 -38 -18 -75 -33 -81 -33 -28 0 -72 162
-84 314 -21 252 29 533 135 765 47 103 50 111 37 111 -4 0 -14 -16 -21 -35 -7
-20 -23 -42 -36 -51 -45 -30 -109 -219 -134 -398 -16 -117 -14 -367 5 -476 9
-52 28 -128 43 -170 l26 -75 -45 -60 c-25 -33 -76 -114 -113 -179 l-69 -119
25 -51 c13 -28 36 -83 51 -122 45 -120 115 -181 184 -162 35 10 227 5 347 -8
l50 -6 -3 -38 -4 -38 54 -11 c29 -5 94 -15 145 -21 121 -14 161 -29 78 -29
-33 0 -89 4 -125 9 -65 9 -140 -1 -140 -19 0 -17 331 -24 540 -12 253 14 411
33 989 116 454 66 622 83 331 33 -85 -15 -263 -45 -395 -68 -309 -53 -603 -90
-712 -90 -125 0 -96 -10 46 -16 86 -3 143 0 195 10 41 9 172 27 292 41 371 43
434 56 904 183 293 80 428 113 505 126 22 4 47 9 55 11 13 4 14 -5 10 -57 l-5
-63 -68 -11 c-37 -6 -73 -17 -80 -24 -10 -10 -7 -11 13 -7 97 23 136 28 167
22 19 -3 33 -8 31 -10 -2 -2 -64 -13 -137 -25 -74 -12 -144 -26 -155 -30 -41
-17 36 -11 190 15 159 27 284 33 250 14 -10 -6 -91 -22 -180 -36 -178 -27
-267 -57 -141 -46 39 3 129 16 200 30 145 26 298 41 276 25 -7 -5 -68 -25
-135 -43 -110 -31 -117 -34 -78 -37 24 -2 96 10 166 27 120 30 213 40 202 22
-6 -8 -75 -28 -184 -52 -95 -20 -47 -20 74 0 485 83 913 213 1519 461 137 56
195 89 195 112 0 4 -44 -14 -97 -41 -190 -95 -448 -192 -683 -257 -164 -45
-184 -43 -40 5 293 98 686 282 1270 596 152 81 83 56 -111 -41 -176 -87 -283
-128 -321 -121 -18 3 -6 11 53 40 77 35 117 66 59 44 -16 -6 -32 -8 -36 -4
-10 9 -17 5 126 66 69 29 154 69 189 88 67 36 134 83 128 90 -2 2 -64 -29
-138 -68 -194 -102 -304 -147 -399 -163 -32 -5 -33 -4 -16 9 10 7 62 33 115
56 262 114 297 142 55 45 -88 -36 -208 -79 -267 -97 l-107 -33 -21 23 c-20 21
-27 22 -84 16 -98 -10 -85 9 28 40 277 77 576 189 802 301 150 74 256 139 155
94 -68 -30 -74 -24 -25 25 116 116 178 273 179 455 1 109 -7 160 -25 160 -20
0 -209 -75 -406 -161 -257 -112 -478 -189 -546 -189 -29 0 90 66 333 186 201
98 283 162 345 268 19 32 60 69 148 135 67 49 158 119 202 155 44 36 82 61 84
55 1 -5 -16 -42 -40 -82 -81 -137 -98 -172 -109 -221 -15 -67 2 -147 40 -189
26 -29 33 -32 88 -31 107 2 273 103 372 226 61 76 124 188 155 275 59 169 11
323 -99 323 -38 0 -127 -36 -192 -78 -33 -21 -65 -42 -72 -46 -8 -5 -2 10 13
32 60 91 72 213 30 299 -47 93 -37 98 -229 -97 -174 -177 -262 -253 -348 -296
-26 -13 -50 -24 -53 -24 -3 0 47 51 111 113 193 186 385 433 476 610 l32 62 7
-35 c10 -46 41 -70 91 -70 76 0 135 57 198 193 63 133 89 327 58 430 -17 56
-73 112 -126 126 -23 7 -46 9 -51 6 -5 -3 -14 -38 -20 -78 -25 -159 -34 -196
-53 -227 l-19 -33 -23 49 c-29 60 -76 106 -136 133 l-44 20 -82 -158 c-146
-283 -281 -477 -444 -641 -85 -85 -263 -230 -283 -230 -4 0 14 26 40 58 167
204 323 559 382 865 40 208 57 534 32 623 -6 23 -33 69 -60 103 -47 58 -66
101 -59 132 2 11 -11 14 -52 15 -74 1 -73 0 -54 30 16 23 16 27 1 41 -14 14
-16 12 -27 -27 -15 -54 -31 -90 -42 -90 -4 0 -8 7 -8 16 0 11 -6 14 -22 8 -35
-10 -35 -11 10 -57 43 -44 69 -102 51 -113 -6 -3 -18 1 -28 10 -26 24 -29 20
-20 -26 4 -24 8 -76 9 -115 0 -58 -3 -73 -15 -73 -8 0 -15 8 -15 18 0 33 -13
33 -26 0 -6 -18 -18 -47 -24 -64 -12 -27 -10 -38 14 -101 15 -38 26 -81 24
-94 -4 -23 -5 -23 -24 11 -26 47 -69 90 -89 90 -15 0 -16 -6 -10 -37 5 -21 8
-49 9 -62 2 -37 26 -39 26 -2 0 16 5 33 10 36 6 4 10 -6 10 -23 0 -16 3 -57 6
-91 5 -42 3 -61 -4 -61 -7 0 -14 11 -18 25 -7 27 -24 34 -24 10 0 -18 -12 -19
-28 -3 -15 15 -15 6 0 -44 8 -26 8 -42 1 -49 -7 -7 -14 3 -21 33 -32 127 -26
207 35 513 54 272 59 518 7 337 -9 -31 -23 -74 -31 -94 l-15 -38 -34 26 c-44
34 -43 25 1 -19 25 -25 35 -44 35 -66 0 -39 -10 -39 -38 -1 -13 16 -31 30 -42
30 -31 0 -32 -17 0 -23 36 -8 65 -57 55 -95 -6 -24 -7 -23 -41 26 -36 54 -59
72 -93 72 -31 0 -25 -17 8 -23 29 -6 56 -38 49 -58 -2 -6 -22 4 -46 20 -23 17
-52 30 -64 30 -17 -1 -19 -2 -6 -6 10 -2 21 -17 24 -31 11 -51 13 -55 27 -44
9 8 21 7 43 -4 32 -17 84 -63 84 -76 0 -16 -67 -6 -155 23 -70 22 -81 28 -51
27 24 -2 41 2 44 10 2 8 -12 12 -50 12 -68 0 -103 18 -103 50 0 23 3 25 45 23
l45 -2 -33 27 c-18 15 -32 30 -32 35 0 4 18 7 40 7 44 0 54 14 16 24 -38 9
-55 -2 -88 -60 -37 -66 -42 -70 -69 -46 -11 11 -40 25 -65 32 -55 16 -96 53
-92 83 2 17 9 22 33 21 17 0 38 -4 48 -8 12 -6 17 -4 17 8 0 9 -7 16 -16 16
-9 0 -39 13 -65 30 -52 32 -107 50 -95 32 3 -6 22 -16 40 -22 29 -9 54 -36 43
-46 -1 -2 -29 -10 -62 -19 -81 -21 -174 -20 -205 3 l-25 17 50 5 c42 4 50 9
55 30 8 29 25 28 59 -3 22 -20 23 -20 13 -2 -29 51 -74 86 -109 84 -14 0 -13
-2 5 -9 19 -8 21 -13 13 -29 -14 -25 -38 -33 -61 -21 -41 22 -76 97 -94 203
-6 31 -4 37 11 37 56 0 237 -36 424 -84 334 -85 422 -87 537 -9 94 63 116 73
159 73 53 -1 129 -34 295 -130 303 -176 471 -292 628 -435 105 -95 147 -123
201 -131 l43 -7 -48 56 c-48 55 -155 154 -251 233 -198 163 -506 336 -798 448
-130 51 -125 51 -196 -9 -24 -19 -52 -35 -63 -35 -11 0 -158 22 -326 50 -169
27 -395 61 -502 75 l-195 26 -25 32 c-46 60 -157 167 -173 167 -9 0 9 -23 45
-57 50 -48 98 -115 98 -138 0 -3 -13 -5 -28 -5 -31 0 -70 26 -131 87 -41 40
-96 69 -105 54 -3 -4 24 -28 59 -53 67 -49 100 -96 90 -129 -6 -18 -12 -15
-58 27 -55 50 -177 133 -342 233 l-99 60 164 -2 c147 -1 169 0 204 18 44 22
89 76 51 61 -11 -4 -56 -17 -100 -28 -92 -24 -215 -21 -325 7 -93 24 -271 114
-372 189 -87 65 -312 275 -304 284 3 2 39 10 82 17 42 8 82 19 88 26 8 9 7 10
-7 6 -9 -4 -77 -9 -150 -13 -167 -8 -237 4 -284 51 -27 27 -35 30 -44 19 -15
-19 -53 -18 -92 2 -41 21 -107 84 -107 102 0 8 16 36 35 62 82 112 127 252
123 382 l-3 83 -13 -100z"/>
<path d="M4192 6607 c-109 -121 -138 -161 -185 -247 -55 -102 -54 -124 1 -32
28 46 103 148 168 228 64 79 115 146 113 149 -3 2 -46 -42 -97 -98z"/>
<path d="M9825 6676 c65 -31 97 -66 136 -151 26 -55 33 -87 37 -153 2 -45 9
-85 14 -88 20 -12 3 167 -21 229 -42 106 -122 187 -185 187 -29 0 -28 -1 19
-24z"/>
<path d="M4506 6587 c-67 -113 -93 -179 -101 -249 l-5 -53 18 60 c10 33 44
111 76 174 94 187 100 217 12 68z"/>
<path d="M6985 6646 c53 -47 188 -132 283 -180 236 -119 495 -167 717 -133 55
9 111 20 125 26 20 8 15 9 -20 3 -94 -15 -340 -6 -450 17 -238 49 -429 129
-660 277 -19 12 -18 10 5 -10z"/>
<path d="M9768 6591 c49 -36 92 -115 92 -168 0 -28 -4 -33 -22 -33 -13 0 -40
-3 -60 -6 -24 -4 -38 -3 -38 4 0 6 19 12 42 14 31 2 44 8 46 21 3 14 -4 17
-40 17 -47 0 -105 -23 -170 -68 -70 -47 -71 -47 -56 -22 7 12 43 39 80 61 84
49 90 59 38 59 -72 0 -155 -59 -195 -139 -26 -51 -31 -140 -11 -179 21 -41 33
-41 28 2 -2 18 1 37 7 40 7 5 11 -3 11 -21 0 -16 6 -38 14 -48 13 -18 15 -17
26 23 7 23 22 49 32 59 18 16 18 16 3 -13 -8 -16 -15 -52 -15 -80 0 -50 -1
-52 -31 -58 -50 -10 -170 -7 -214 5 -44 12 -85 44 -85 67 0 8 -6 12 -15 8 -8
-3 -72 -13 -143 -22 -252 -32 -255 -33 -107 -29 77 3 158 9 179 14 36 9 44 7
81 -20 95 -68 226 -92 355 -65 102 22 175 59 241 125 84 84 113 180 93 304 -9
53 -24 46 -24 -13 0 -27 -4 -50 -10 -50 -5 0 -10 13 -10 30 0 82 -71 191 -135
206 -28 6 -28 5 13 -25z"/>
<path d="M4376 6573 c-13 -21 -58 -85 -100 -143 -145 -199 -205 -358 -191
-505 8 -89 45 -199 68 -203 12 -3 17 3 17 22 0 50 15 25 37 -60 25 -94 76
-217 81 -193 1 9 -9 55 -23 104 -28 97 -29 105 -16 105 6 0 30 -42 54 -93 24
-51 52 -98 61 -106 21 -18 21 -14 -9 54 -64 145 -92 401 -65 612 14 116 58
295 93 381 13 34 23 62 21 62 -2 0 -15 -17 -28 -37z"/>
<path d="M6361 6523 c37 -106 84 -195 149 -283 56 -74 203 -221 303 -303 l69
-55 74 0 c61 -1 97 -8 206 -46 73 -25 151 -50 173 -56 l40 -10 -45 5 c-25 3
-76 8 -115 10 -109 8 -46 -12 81 -26 159 -17 323 7 399 58 17 12 14 13 -30 13
-28 0 -90 5 -140 10 -478 55 -875 298 -1140 698 -26 39 -49 72 -51 72 -2 0 10
-39 27 -87z"/>
<path d="M2451 6565 c-3 -81 71 -269 135 -343 42 -49 58 -50 21 0 -47 63 -125
246 -150 353 -3 14 -5 10 -6 -10z"/>
<path d="M4769 6483 c-129 -211 -185 -332 -225 -490 -21 -86 -45 -306 -31
-293 3 3 12 46 21 97 20 115 33 148 54 130 8 -6 25 -12 36 -12 18 0 22 -7 26
-54 7 -73 27 -78 34 -9 34 351 62 473 148 640 38 73 42 98 15 98 -7 0 -42 -48
-78 -107z"/>
<path d="M9629 6570 c-141 -24 -235 -113 -253 -240 -8 -53 5 -44 22 16 19 66
82 129 176 174 45 22 89 40 97 40 8 0 21 5 29 10 12 8 11 10 -5 9 -11 -1 -41
-5 -66 -9z"/>
<path d="M863 6556 c-52 -11 -113 -56 -113 -83 0 -20 9 -16 36 17 34 40 87 53
219 54 125 0 190 -15 296 -70 129 -68 233 -184 309 -347 22 -47 40 -87 40 -90
0 -3 -51 -36 -112 -73 -134 -80 -185 -117 -169 -122 9 -3 9 -7 0 -18 -30 -36
12 -19 159 65 88 50 164 91 169 91 18 0 139 -135 191 -212 51 -76 128 -222
162 -307 l19 -49 -22 -19 c-12 -10 -42 -32 -67 -47 -52 -33 -90 -66 -90 -78 0
-5 25 10 55 32 62 45 141 90 161 90 7 0 32 -26 56 -57 37 -51 255 -321 280
-348 17 -19 -5 29 -33 70 -15 22 -53 71 -84 110 -32 38 -67 89 -78 112 l-20
41 22 64 c13 35 61 135 106 223 83 159 130 264 121 272 -2 2 -65 -118 -140
-266 -75 -149 -141 -271 -146 -271 -4 0 -23 18 -40 40 l-32 41 81 173 c88 189
165 376 157 383 -8 9 -116 -214 -206 -424 -24 -57 -46 -103 -49 -103 -3 0 -19
21 -34 46 -42 70 -227 403 -227 409 0 2 41 25 91 51 51 25 128 68 173 96 44
28 92 58 106 67 l25 15 -20 -24 c-11 -13 -58 -61 -105 -106 -47 -45 -82 -85
-79 -88 3 -3 38 23 78 59 82 74 118 88 51 20 -24 -25 -39 -45 -34 -45 16 0
138 130 157 167 20 39 22 54 3 28 -8 -11 -19 -16 -30 -12 -23 9 -20 19 14 62
31 38 41 72 18 59 -43 -25 -115 -78 -198 -144 -114 -92 -168 -129 -238 -164
l-52 -26 -40 40 c-21 22 -49 40 -60 40 -26 0 -84 -29 -169 -86 -36 -23 -79
-46 -96 -49 -20 -5 -5 8 45 37 41 24 93 55 115 69 22 15 50 29 63 33 27 9 26
16 -24 124 -102 223 -269 378 -459 427 -69 18 -234 18 -312 1z"/>
<path d="M9566 6490 c-92 -36 -136 -103 -134 -200 l1 -55 6 50 c9 66 21 86 78
128 63 45 101 64 165 81 l53 15 -60 0 c-36 0 -80 -8 -109 -19z"/>
<path d="M4974 6404 c-95 -149 -159 -295 -200 -456 -31 -124 -28 -174 4 -58
33 117 102 290 177 443 35 70 61 127 59 127 -2 0 -20 -25 -40 -56z"/>
<path d="M10061 6378 c10 -65 -8 -158 -50 -260 -37 -88 -39 -105 -6 -56 61 89
93 218 75 303 -15 70 -29 80 -19 13z"/>
<path d="M770 6405 c0 -3 32 -45 71 -93 172 -213 301 -448 456 -835 l56 -139
-37 -30 c-69 -57 -106 -159 -107 -293 0 -98 19 -169 57 -210 32 -35 38 -28 23
26 -6 24 -11 80 -11 124 2 128 37 235 102 309 l30 34 50 -48 c60 -58 63 -81
16 -98 -102 -37 -155 -215 -95 -321 30 -53 53 -63 43 -18 -10 47 -6 162 7 208
16 53 74 119 104 119 17 0 31 -13 54 -49 16 -28 39 -55 51 -61 18 -10 20 -8
20 22 0 54 -42 128 -135 238 -145 173 -183 236 -309 512 -140 308 -212 435
-295 528 l-32 35 17 -35 c15 -32 11 -30 -38 23 -34 36 -62 57 -76 57 -12 0
-22 -2 -22 -5z"/>
<path d="M2370 6401 c0 -23 31 -134 45 -160 14 -27 14 -27 -127 -216 -111
-147 -158 -252 -173 -387 -4 -39 -3 -58 4 -58 6 0 11 4 11 9 0 18 139 309 185
386 63 108 138 199 148 183 4 -7 27 -46 51 -86 98 -167 239 -313 394 -412 40
-25 72 -50 72 -57 0 -6 -42 -96 -94 -200 -88 -178 -152 -330 -142 -340 6 -6
99 108 155 190 26 40 71 119 98 177 47 99 94 170 113 170 5 0 -2 -24 -15 -54
-13 -30 -32 -92 -41 -138 -28 -138 -13 -252 79 -613 49 -190 60 -272 54 -390
l-5 -100 19 47 c57 146 51 289 -25 591 -81 317 -89 415 -50 557 28 97 58 146
103 164 50 19 299 40 316 26 22 -18 63 -105 79 -165 25 -99 35 -179 51 -425
20 -300 42 -400 157 -688 104 -264 117 -352 79 -545 -25 -127 -26 -214 -6
-392 41 -358 12 -475 -187 -772 -157 -236 -180 -299 -223 -613 -44 -326 -101
-469 -303 -760 -207 -297 -480 -578 -645 -661 -51 -27 -148 -36 -261 -26 -49
4 -91 6 -92 4 -7 -6 -6 -65 1 -157 9 -114 -8 -115 -24 -1 -6 45 -16 80 -26 90
-16 15 -17 12 -10 -44 10 -81 41 -160 119 -301 35 -66 68 -132 71 -149 l7 -30
-21 25 c-37 44 -127 231 -172 357 -44 123 -63 156 -49 86 21 -108 19 -116 -9
-38 -42 118 -51 73 -12 -62 37 -124 115 -292 161 -343 l31 -35 -21 45 c-17 37
-17 41 -3 22 95 -123 143 -137 272 -77 122 57 321 239 365 334 13 28 27 46 34
43 22 -7 50 27 113 140 116 205 246 518 334 803 65 209 132 494 140 595 7 89
21 136 47 158 13 11 16 5 22 -40 5 -32 27 -91 58 -152 54 -109 81 -176 73
-184 -3 -3 -18 25 -35 62 -17 37 -35 64 -40 61 -6 -4 0 -26 14 -53 13 -26 42
-103 65 -172 47 -143 61 -170 61 -125 0 79 -101 421 -157 528 -8 16 -12 31 -9
34 2 3 24 -33 46 -78 42 -84 88 -154 96 -146 5 4 -136 267 -170 320 -18 27
-18 30 5 145 l23 117 60 70 c146 167 252 378 286 567 15 81 13 210 -5 398 -19
194 -19 308 0 430 19 124 19 223 -1 291 -9 30 -44 124 -79 209 -117 288 -127
335 -155 714 -20 267 -31 360 -50 425 -5 19 -9 35 -7 36 1 0 25 11 54 24 66
30 130 95 139 141 l7 35 -34 -50 c-35 -51 -101 -98 -154 -111 -26 -7 -23 -1
30 43 88 74 114 105 121 143 6 33 3 30 -41 -32 -40 -58 -121 -128 -146 -128
-4 0 -16 16 -27 34 -32 54 -91 79 -197 84 -119 5 -167 -8 -186 -50 -23 -54
-51 -61 -126 -32 -215 80 -416 242 -550 442 -21 31 -66 113 -100 182 -35 69
-63 119 -63 111z"/>
<path d="M10160 6401 c0 -5 7 -36 15 -68 22 -83 19 -226 -5 -305 -68 -220
-272 -366 -545 -388 l-100 -8 125 3 c103 2 138 7 200 29 188 65 327 219 361
401 14 76 6 249 -14 296 -15 36 -37 60 -37 40z"/>
<path d="M9200 6269 c-19 -5 -105 -7 -190 -4 -147 4 -152 4 -105 -10 114 -33
281 -28 331 10 21 16 14 17 -36 4z"/>
<path d="M3656 6220 c-10 -11 -49 -37 -85 -59 -36 -21 -75 -48 -85 -60 -12
-13 16 -1 70 30 101 58 111 65 125 91 13 23 -1 22 -25 -2z"/>
<path d="M9140 6198 c-41 -10 -124 -22 -185 -25 -97 -5 -116 -3 -164 16 -40
16 -51 18 -42 7 27 -32 112 -51 226 -51 122 0 181 13 222 50 16 13 26 24 23
24 -3 -1 -39 -10 -80 -21z"/>
<path d="M3680 6160 c-14 -10 -73 -44 -132 -75 -60 -31 -108 -59 -108 -61 0
-6 120 41 166 64 45 24 111 78 104 85 -3 3 -16 -3 -30 -13z"/>
<path d="M10088 6133 c-21 -155 -138 -270 -318 -314 -106 -25 -263 -15 -385
26 -43 15 10 -15 65 -36 110 -42 280 -41 395 2 151 56 262 202 253 331 l-3 43
-7 -52z"/>
<path d="M2615 6080 c27 -27 51 -48 53 -45 8 8 -71 95 -86 95 -10 0 2 -18 33
-50z"/>
<path d="M10267 6042 c-20 -136 -100 -290 -192 -371 -49 -42 -164 -98 -221
-107 -70 -10 -54 -28 18 -20 221 23 419 266 406 498 l-3 53 -8 -53z"/>
<path d="M4006 6035 c-32 -142 -112 -313 -183 -394 -26 -30 -67 -66 -90 -81
-40 -26 -41 -28 -21 -34 13 -3 48 -6 79 -6 111 0 211 80 245 195 8 30 14 71
12 92 l-3 38 -18 -40 c-31 -70 -79 -135 -109 -151 -17 -9 -32 -13 -34 -11 -3
3 15 36 41 75 25 39 54 92 65 118 25 57 40 155 30 198 l-7 31 -7 -30z"/>
<path d="M2729 5982 c108 -101 283 -192 396 -207 46 -5 42 -3 -55 38 -163 67
-281 130 -366 196 -11 9 0 -3 25 -27z"/>
<path d="M2916 6011 c17 -19 176 -80 260 -100 113 -27 192 -33 270 -21 60 10
170 48 161 56 -1 2 -32 -6 -67 -17 -132 -42 -356 -11 -615 86 -15 6 -17 5 -9
-4z"/>
<path d="M3000 5916 c0 -9 191 -66 256 -77 62 -11 156 -6 181 9 6 4 -26 8 -70
8 -53 1 -129 13 -215 33 -136 32 -152 34 -152 27z"/>
<path d="M8260 5887 c0 -5 9 -21 20 -37 46 -65 70 -195 71 -390 0 -165 18
-148 26 26 6 125 -10 223 -52 309 -24 50 -64 107 -65 92z"/>
<path d="M8194 5781 c23 -26 52 -105 61 -167 8 -65 -9 -217 -40 -357 -14 -61
-24 -112 -22 -114 6 -5 76 216 87 276 15 80 12 139 -10 225 -22 88 -57 156
-78 156 -12 0 -12 -3 2 -19z"/>
<path d="M7810 5733 c0 -12 5 -34 11 -50 6 -15 16 -55 24 -88 7 -33 13 -49 14
-35 1 33 -25 155 -38 177 -9 16 -10 16 -11 -4z"/>
<path d="M8010 5624 c0 -167 -37 -312 -109 -437 -22 -37 -36 -67 -32 -67 12 0
38 32 45 56 7 21 46 64 46 49 0 -26 -75 -139 -134 -203 -56 -60 -64 -72 -37
-55 58 36 141 124 181 193 86 146 119 331 88 499 -12 63 -12 64 -19 31 -3 -19
-7 -26 -8 -15 -1 11 -6 27 -11 35 -7 10 -10 -17 -10 -86z"/>
<path d="M8144 5540 c1 -177 -4 -198 -108 -422 -19 -43 -33 -78 -31 -78 12 0
78 117 106 187 43 105 62 219 55 318 -11 149 -23 147 -22 -5z"/>
<path d="M1044 5609 c-126 -99 -195 -264 -195 -469 -1 -153 33 -280 104 -390
l28 -45 -41 45 c-78 84 -128 214 -137 357 -7 105 -23 116 -23 15 1 -177 60
-312 196 -448 l91 -90 -132 -67 c-322 -165 -599 -333 -609 -369 -28 -105 -32
-575 -7 -788 5 -41 8 -76 7 -78 -11 -10 -112 323 -167 547 -22 91 -36 131 -46
131 -12 0 -70 -25 -81 -36 -2 -1 -10 -44 -18 -96 -41 -276 11 -536 188 -928
164 -363 251 -504 340 -548 67 -33 95 -24 185 59 77 72 109 91 253 153 47 20
96 46 110 57 l25 20 -25 -6 c-14 -4 -85 -34 -159 -66 -73 -33 -135 -58 -138
-56 -8 8 60 58 116 86 50 25 131 50 259 81 25 7 42 16 42 25 0 18 -11 19 -45
3 -18 -8 -29 -8 -36 -1 -8 8 1 13 30 18 23 4 65 23 94 42 29 20 66 42 82 49
l30 13 -37 1 c-46 0 -50 15 -7 24 92 18 182 -14 245 -87 28 -34 190 -279 202
-308 2 -4 -13 -29 -33 -55 -46 -60 -132 -238 -182 -374 -29 -79 -39 -98 -41
-78 -6 50 37 177 108 318 39 77 70 145 70 152 0 20 -46 -53 -93 -149 -107
-214 -148 -443 -117 -643 16 -96 41 -107 122 -54 45 29 77 81 132 218 23 57
55 125 71 151 l28 48 42 -89 c23 -49 53 -103 67 -119 24 -29 114 -82 123 -73
3 2 -11 27 -30 55 -48 71 -110 197 -129 262 -30 101 -30 268 0 278 5 2 53 -29
105 -68 116 -88 164 -111 226 -107 l47 3 -35 34 c-19 19 -83 67 -144 106 -129
85 -191 147 -337 341 -200 263 -284 322 -562 395 -88 22 -170 47 -182 55 -12
8 -35 40 -52 72 -33 63 -97 250 -89 259 3 2 35 -23 72 -57 61 -57 130 -98 143
-86 12 12 -74 121 -195 248 -138 144 -175 203 -194 306 -14 76 -4 165 27 229
63 131 207 190 520 213 212 15 207 16 199 -19 -7 -31 14 -92 42 -123 18 -21
77 -24 135 -8 48 14 104 79 123 144 24 81 21 93 -25 101 -23 4 -89 31 -148 61
-93 47 -115 54 -165 54 -74 0 -103 -16 -167 -89 -55 -63 -91 -85 -134 -79
l-27 3 62 123 c94 189 182 266 333 293 51 8 86 8 149 -1 181 -26 664 -166 862
-251 65 -28 83 -32 65 -17 -77 63 -236 121 -554 199 -133 33 -269 69 -303 80
-59 19 -63 23 -63 51 0 88 56 171 142 209 110 49 341 24 559 -60 83 -32 201
-90 234 -114 19 -14 19 -16 2 -34 -9 -11 -17 -24 -17 -29 0 -5 5 -1 11 9 20
35 55 21 98 -40 146 -206 143 -201 102 -226 -56 -33 -99 -92 -106 -144 -11
-92 -54 -145 -150 -189 -114 -52 -280 -56 -455 -10 -137 36 -190 61 -190 91 0
53 -17 29 -29 -40 -23 -140 -101 -253 -209 -303 -49 -23 -70 -27 -154 -27 -54
0 -98 -3 -98 -7 0 -4 -16 -23 -36 -42 -44 -42 -100 -64 -256 -100 -65 -15
-118 -31 -118 -36 0 -14 56 -50 88 -56 45 -9 105 23 216 115 109 91 136 105
181 97 43 -8 134 9 191 35 66 31 162 130 204 211 l34 66 48 -24 c86 -44 193
-67 308 -68 58 0 130 6 160 13 122 30 230 103 271 183 19 38 19 38 39 18 26
-26 83 -26 152 0 84 32 82 27 39 116 -21 43 -55 113 -74 154 -48 100 -97 181
-149 243 -196 234 -791 334 -1029 174 -53 -36 -79 -82 -79 -142 l0 -52 -79 -6
c-86 -5 -132 -22 -252 -93 -42 -24 -81 -44 -86 -44 -27 0 -116 109 -153 185
-63 131 -75 188 -74 365 0 141 3 162 27 237 28 84 92 192 130 218 12 8 17 15
11 15 -6 0 -29 -14 -50 -31z"/>
<path d="M6660 5600 c-11 -7 -4 -10 25 -10 57 0 138 -23 293 -81 74 -28 138
-49 143 -47 5 2 -49 29 -121 61 -165 74 -298 104 -340 77z"/>
<path d="M6950 5586 c85 -30 184 -76 240 -110 l45 -28 -25 25 c-59 61 -227
137 -299 137 -17 0 -5 -8 39 -24z"/>
<path d="M5545 5588 c-90 -9 -210 -37 -189 -45 18 -6 277 36 288 47 6 6 6 9 1
9 -6 -1 -50 -6 -100 -11z"/>
<path d="M7185 5552 c28 -15 85 -52 128 -81 43 -29 81 -51 83 -48 7 7 -132
108 -184 134 -64 33 -87 28 -27 -5z"/>
<path d="M6590 5548 c189 -31 329 -79 488 -165 45 -24 82 -42 82 -39 0 2 -38
28 -85 56 -184 111 -330 161 -464 159 l-76 -2 55 -9z"/>
<path d="M1095 5492 c-36 -54 -81 -184 -95 -275 -15 -93 -8 -234 14 -297 20
-53 66 -134 73 -127 2 3 -2 16 -10 29 -39 62 -52 130 -52 278 1 160 21 261 74
373 15 31 26 57 24 57 -1 0 -14 -17 -28 -38z"/>
<path d="M4070 5516 c0 -7 -22 -42 -50 -77 -27 -35 -50 -73 -50 -83 0 -19 16
-1 88 96 19 27 31 78 17 78 -3 0 -5 -6 -5 -14z"/>
<path d="M6500 5523 c0 -10 257 -83 291 -82 15 0 4 7 -31 18 -30 10 -77 27
-105 38 -56 23 -155 40 -155 26z"/>
<path d="M7385 5502 c28 -17 92 -69 144 -116 52 -47 99 -86 105 -86 17 0 -145
158 -194 190 -25 16 -58 32 -75 35 -25 6 -21 1 20 -23z"/>
<path d="M8820 5480 c109 -140 222 -234 353 -295 103 -48 119 -44 27 6 -100
54 -198 129 -317 241 -67 65 -87 79 -63 48z"/>
<path d="M4432 5453 c-33 -74 -121 -181 -203 -251 -73 -61 -272 -172 -286
-158 -15 15 38 62 116 102 117 60 135 90 47 81 -93 -9 -168 -62 -200 -139 -24
-56 -21 -65 23 -72 163 -26 376 120 474 325 40 83 66 159 55 159 -3 0 -14 -21
-26 -47z"/>
<path d="M3931 5417 c-76 -82 -73 -103 4 -27 48 47 74 86 63 94 -1 1 -32 -29
-67 -67z"/>
<path d="M4672 5381 c-18 -31 -76 -105 -128 -166 -53 -60 -100 -118 -106 -128
-30 -57 91 65 178 178 40 52 97 152 92 164 -1 5 -18 -17 -36 -48z"/>
<path d="M4061 5396 c-12 -19 -57 -67 -99 -107 -48 -45 -64 -65 -44 -53 48 27
137 115 157 153 23 45 12 50 -14 7z"/>
<path d="M6590 5400 c58 -15 119 -44 235 -112 97 -57 159 -88 145 -74 -3 2
-48 35 -100 72 -130 92 -179 115 -254 120 -51 3 -55 2 -26 -6z"/>
<path d="M4560 5343 c-18 -32 -84 -110 -149 -177 -89 -91 -105 -112 -70 -89
96 65 206 194 244 286 22 54 12 46 -25 -20z"/>
<path d="M4121 5383 c-1 -18 -104 -125 -166 -173 -64 -50 -67 -64 -4 -25 89
57 188 168 176 198 -4 9 -6 9 -6 0z"/>
<path d="M8790 5383 c0 -21 128 -167 193 -219 80 -64 224 -136 305 -153 29 -6
83 -10 120 -10 l67 2 -79 8 c-191 20 -357 115 -535 305 -39 42 -71 72 -71 67z"/>
<path d="M1122 5353 c-41 -109 -58 -245 -42 -359 12 -95 20 -120 56 -182 32
-54 41 -51 14 4 -38 75 -52 177 -47 324 3 82 11 154 21 185 17 53 15 73 -2 28z"/>
<path d="M6470 5367 c0 -3 26 -13 58 -22 31 -9 116 -47 187 -84 197 -102 207
-103 69 -7 -107 73 -181 107 -255 113 -32 3 -59 3 -59 0z"/>
<path d="M4726 5332 c-27 -51 -131 -185 -234 -300 -56 -62 -102 -115 -102
-118 0 -3 17 8 38 24 64 51 175 173 223 247 48 72 103 175 94 175 -2 0 -11
-13 -19 -28z"/>
<path d="M4336 5192 c-113 -101 -154 -148 -110 -124 42 22 253 233 232 232 -1
0 -57 -49 -122 -108z"/>
<path d="M6240 5290 c-9 -6 -10 -10 -3 -10 30 0 126 -45 207 -95 49 -31 90
-54 92 -52 5 4 -136 106 -186 135 -44 25 -91 35 -110 22z"/>
<path d="M6120 5270 c0 -5 7 -10 17 -10 9 0 68 -27 130 -60 63 -33 122 -60
131 -60 11 1 5 7 -13 16 -16 9 -58 34 -92 56 -34 22 -83 46 -109 54 -56 17
-64 17 -64 4z"/>
<path d="M6451 5247 c30 -18 81 -53 114 -77 133 -99 208 -150 217 -150 5 0
-14 19 -44 42 -29 23 -84 68 -122 100 -67 57 -174 118 -205 118 -8 0 10 -15
40 -33z"/>
<path d="M4723 5198 c-126 -159 -285 -297 -428 -372 -88 -46 -46 -37 60 13
145 68 268 184 396 372 22 33 38 59 35 59 -3 0 -31 -33 -63 -72z"/>
<path d="M2943 5207 c-11 -23 -59 -94 -107 -157 -47 -63 -86 -121 -86 -128 0
-15 136 145 172 203 26 41 53 113 46 120 -2 3 -13 -14 -25 -38z"/>
<path d="M6605 5225 c17 -13 59 -39 95 -57 119 -60 374 -334 555 -598 77 -112
86 -120 40 -35 -160 291 -371 517 -620 664 -94 56 -116 64 -70 26z"/>
<path d="M5029 5027 c-117 -145 -164 -215 -197 -294 -33 -78 -26 -76 17 5 21
40 90 141 153 225 102 134 145 197 136 197 -2 0 -51 -60 -109 -133z"/>
<path d="M2945 5094 c-10 -15 -48 -66 -85 -113 -67 -85 -95 -129 -88 -136 6
-6 161 192 181 232 22 42 17 54 -8 17z"/>
<path d="M4923 5032 c-201 -200 -308 -411 -318 -627 l-5 -90 16 50 c8 28 24
82 36 120 50 170 173 379 307 528 39 43 71 82 71 87 0 26 -37 3 -107 -68z"/>
<path d="M3216 5060 c8 -55 41 -181 59 -225 l15 -40 -5 51 c-7 67 -31 157 -55
208 l-20 41 6 -35z"/>
<path d="M4725 5049 c-98 -57 -197 -141 -251 -212 -43 -57 -79 -117 -71 -117
2 0 28 30 57 66 55 68 209 206 293 263 40 27 55 41 44 41 -1 0 -34 -18 -72
-41z"/>
<path d="M3270 5074 c0 -25 32 -172 51 -231 21 -64 45 -100 28 -41 -5 18 -21
82 -34 141 -22 97 -44 161 -45 131z"/>
<path d="M3160 5067 c0 -2 16 -56 35 -118 19 -63 35 -126 35 -140 0 -15 7 -33
16 -40 15 -12 16 -11 11 6 -4 11 -14 52 -22 90 -20 91 -54 193 -66 200 -5 4
-9 4 -9 2z"/>
<path d="M3384 5045 c3 -16 13 -74 21 -129 18 -112 37 -164 29 -76 -10 104
-25 185 -40 210 l-15 25 5 -30z"/>
<path d="M3336 5015 c9 -66 48 -201 52 -182 5 23 -24 152 -43 192 l-14 30 5
-40z"/>
<path d="M5043 4953 c-60 -95 -104 -181 -118 -233 -9 -32 142 211 167 269 33
77 15 64 -49 -36z"/>
<path d="M5367 5023 c-3 -5 -24 -53 -47 -108 -48 -112 -66 -169 -74 -235 -5
-36 0 -29 23 40 15 47 43 123 61 170 36 95 50 140 45 140 -2 0 -6 -3 -8 -7z"/>
<path d="M3444 4961 c2 -35 9 -68 15 -74 17 -17 13 72 -5 108 -14 29 -14 28
-10 -34z"/>
<path d="M3500 4943 c0 -44 5 -74 13 -81 9 -8 11 5 7 63 -7 96 -20 108 -20 18z"/>
<path d="M5088 4918 c-30 -51 -60 -108 -66 -127 -27 -78 -8 -53 59 75 39 75
69 138 66 140 -2 2 -29 -37 -59 -88z"/>
<path d="M5522 4953 c-56 -294 -35 -590 65 -877 38 -110 122 -287 158 -332 15
-19 8 1 -20 61 -152 317 -232 767 -194 1101 12 109 7 133 -9 47z"/>
<path d="M4654 4919 c-155 -124 -245 -223 -300 -331 -36 -71 -29 -80 13 -18
96 144 238 297 331 356 28 19 52 41 52 49 0 8 -1 15 -3 15 -2 0 -44 -32 -93
-71z"/>
<path d="M5152 4897 c-60 -110 -92 -189 -91 -220 0 -14 2 -17 6 -7 3 8 36 82
75 163 39 82 68 150 65 153 -2 3 -28 -37 -55 -89z"/>
<path d="M6065 4883 c51 -95 110 -179 132 -187 7 -3 -4 18 -25 47 -22 28 -62
91 -91 140 -29 48 -55 87 -58 87 -2 0 16 -39 42 -87z"/>
<path d="M5380 4855 c-37 -119 -39 -169 -1 -60 28 82 46 155 37 155 -3 0 -19
-43 -36 -95z"/>
<path d="M6125 4919 c26 -44 89 -129 96 -129 13 0 -74 133 -90 138 -9 3 -11 0
-6 -9z"/>
<path d="M5720 4772 c0 -148 79 -516 132 -610 33 -61 41 -61 13 1 -54 123
-125 465 -125 604 0 45 -4 85 -10 88 -6 4 -10 -26 -10 -83z"/>
<path d="M5920 4856 c0 -21 126 -249 162 -292 71 -86 102 -97 36 -12 -15 20
-65 96 -109 170 -85 140 -89 146 -89 134z"/>
<path d="M5202 4803 c-23 -56 -39 -123 -25 -108 10 10 40 81 53 128 14 45 -6
31 -28 -20z"/>
<path d="M10930 4846 c0 -4 15 -20 33 -36 32 -29 62 -40 55 -19 -4 12 -88 65
-88 55z"/>
<path d="M4584 4778 c-116 -109 -203 -239 -244 -367 -28 -88 -24 -97 10 -24
31 69 119 208 125 201 8 -8 -25 -107 -81 -240 -57 -134 -68 -183 -19 -81 46
95 176 377 182 393 3 8 -6 2 -20 -15 -14 -16 -28 -27 -32 -23 -12 11 40 92
101 158 31 33 54 60 50 60 -3 0 -35 -28 -72 -62z"/>
<path d="M5850 4827 c0 -6 106 -240 129 -285 23 -45 97 -132 112 -132 5 0 -9
24 -31 53 -22 28 -76 123 -121 210 -69 135 -89 170 -89 154z"/>
<path d="M10856 4789 c12 -13 19 -29 17 -36 -2 -7 4 -11 14 -11 10 1 28 -2 41
-6 33 -11 27 -2 -20 30 -66 45 -75 49 -52 23z"/>
<path d="M6075 4713 c44 -79 76 -123 113 -158 41 -38 48 -30 10 13 -18 20 -60
76 -92 125 -32 48 -60 87 -63 87 -2 0 12 -30 32 -67z"/>
<path d="M5826 4665 c8 -81 47 -200 84 -259 17 -26 33 -47 35 -44 2 2 -8 28
-22 57 -15 30 -44 111 -65 180 -35 114 -38 120 -32 66z"/>
<path d="M9495 4668 c20 -24 62 -93 93 -155 31 -61 58 -110 60 -109 4 5 -42
126 -71 182 -22 43 -95 124 -113 124 -3 0 11 -19 31 -42z"/>
<path d="M11910 4473 c-13 -131 -24 -285 -24 -343 0 -98 18 -210 32 -210 15 1
84 60 113 96 41 51 82 134 107 214 74 240 2 436 -174 474 l-30 7 -24 -238z"/>
<path d="M8475 4679 c182 -44 362 -114 469 -183 75 -48 71 -38 -6 17 -114 80
-251 137 -421 173 -101 21 -135 16 -42 -7z"/>
<path d="M9423 4639 c49 -56 106 -156 127 -224 14 -46 30 -68 30 -41 0 28 -75
181 -115 236 -19 26 -47 56 -62 66 -20 13 -15 3 20 -37z"/>
<path d="M9295 4633 c81 -77 154 -193 196 -313 37 -107 55 -106 23 1 -41 139
-141 288 -218 325 l-31 15 30 -28z"/>
<path d="M9236 4578 c38 -40 88 -103 109 -140 22 -38 45 -68 52 -68 18 0 -125
217 -161 244 -67 50 -67 34 0 -36z"/>
<path d="M5630 4639 c0 -3 7 -54 15 -115 27 -207 80 -359 176 -504 29 -44 54
-79 55 -77 1 1 -22 52 -52 112 -63 129 -136 343 -165 481 -17 82 -29 125 -29
103z"/>
<path d="M9022 4563 c84 -82 181 -216 214 -296 10 -26 23 -47 27 -47 5 0 7 3
5 8 -2 4 -14 30 -27 57 -67 148 -135 244 -220 311 -87 69 -87 52 1 -33z"/>
<path d="M9102 4609 c15 -11 59 -63 98 -114 39 -52 75 -97 80 -100 24 -15 6
19 -48 92 -60 81 -124 143 -145 143 -7 0 0 -10 15 -21z"/>
<path d="M8251 4590 c-70 -15 -61 -20 40 -20 180 0 356 -33 461 -86 28 -14 80
-48 114 -74 62 -48 100 -67 111 -56 9 9 -166 117 -263 162 -49 23 -117 50
-150 59 -70 19 -251 28 -313 15z"/>
<path d="M8190 4520 c-17 -6 -2 -8 52 -9 86 -1 182 -19 308 -58 210 -64 235
-62 54 5 -174 64 -333 88 -414 62z"/>
<path d="M2300 4479 c0 -6 -9 -22 -20 -36 -24 -31 -26 -80 -4 -112 66 -94 334
-72 334 28 0 5 -13 -3 -28 -19 -67 -66 -210 -66 -266 1 -31 37 -33 64 -6 104
24 36 25 45 5 45 -8 0 -15 -5 -15 -11z"/>
<path d="M8077 4451 c-20 -4 -39 -10 -41 -12 -2 -2 41 -5 97 -6 129 -2 225
-22 407 -83 80 -27 146 -47 148 -46 6 7 -237 106 -308 126 -81 23 -241 34
-303 21z"/>
<path d="M8780 4366 c0 -7 110 -76 122 -76 6 0 -13 18 -42 40 -46 34 -80 50
-80 36z"/>
<path d="M7900 4340 c-51 -9 -105 -28 -98 -35 2 -2 20 0 40 5 20 6 100 14 178
19 78 5 144 12 147 15 9 9 -214 5 -267 -4z"/>
<path d="M3246 4283 c-4 -4 -70 -7 -148 -8 l-142 0 -8 -31 c-17 -67 -80 -93
-228 -94 l-105 -1 40 -15 c64 -25 170 -14 248 24 35 17 71 40 80 50 16 18 19
18 88 0 145 -36 326 -32 376 9 17 14 17 14 -2 8 -55 -18 -182 -25 -249 -15
-104 16 -104 21 3 41 41 8 76 20 79 27 4 13 -20 17 -32 5z"/>
<path d="M7823 4269 c-55 -9 -129 -37 -103 -38 8 -1 53 6 100 14 47 8 110 15
140 16 40 0 50 3 35 9 -25 11 -104 10 -172 -1z"/>
<path d="M7663 4200 c-34 -8 -88 -39 -81 -46 3 -2 40 6 84 18 65 18 102 22
206 21 71 -1 130 2 133 8 7 11 -294 11 -342 -1z"/>
<path d="M7835 4134 c-16 -2 -72 -9 -123 -15 -52 -6 -110 -17 -130 -25 l-37
-14 55 6 c121 12 255 35 264 44 6 6 8 9 6 9 -3 -1 -18 -4 -35 -5z"/>
<path d="M4415 4064 c-250 -86 -391 -201 -456 -370 l-9 -26 57 32 c32 18 133
84 225 146 162 110 292 184 323 184 8 0 15 4 15 9 0 5 -28 3 -62 -5 -76 -18
-124 -14 -60 4 31 10 42 18 42 32 0 11 -1 20 -2 19 -2 0 -34 -11 -73 -25z"/>
<path d="M4706 4019 c-139 -18 -342 -99 -463 -185 -58 -41 -121 -109 -112
-119 3 -2 49 26 104 62 152 99 260 149 364 167 49 9 32 -3 -48 -34 -82 -32
-190 -102 -246 -159 -21 -23 -36 -41 -32 -41 4 0 37 19 74 41 180 111 356 179
519 204 53 8 99 17 102 20 3 3 -24 5 -59 6 -35 1 -75 4 -89 8 -25 7 -25 7 -2
13 12 3 22 11 22 17 0 12 -35 12 -134 0z"/>
<path d="M2165 3947 c-55 -47 -141 -113 -172 -131 -22 -13 -14 10 23 64 52 76
42 88 -33 43 -155 -95 -356 -285 -494 -468 -131 -174 -124 -169 96 73 81 89
181 194 223 232 80 74 192 157 192 142 0 -4 -18 -33 -40 -62 -40 -54 -49 -83
-29 -95 6 -4 20 2 32 12 12 11 61 47 108 81 83 59 159 132 159 152 0 15 0 15
-65 -43z"/>
<path d="M6645 3943 c62 -148 229 -337 380 -429 17 -10 -15 25 -69 77 -91 85
-182 197 -276 337 -41 61 -57 68 -35 15z"/>
<path d="M6175 3866 c-117 -183 -176 -409 -154 -590 17 -134 24 -113 25 72 1
162 3 184 28 265 30 101 52 146 108 229 22 32 38 64 35 70 -2 7 -21 -14 -42
-46z"/>
<path d="M6960 3857 c0 -8 23 -33 50 -56 159 -134 392 -222 580 -219 l95 1
-90 7 c-139 11 -248 46 -440 140 -95 46 -124 66 -139 92 -27 46 -56 64 -56 35z"/>
<path d="M6905 3806 c212 -197 439 -288 709 -285 l101 1 -110 13 c-270 31
-516 127 -678 263 -59 50 -73 55 -22 8z"/>
<path d="M4810 3830 c-25 -8 -25 -8 -3 -15 19 -6 6 -18 -95 -85 -173 -115
-311 -245 -414 -390 -46 -65 -113 -189 -106 -196 2 -2 38 38 79 88 139 170
349 355 503 442 l48 28 -7 -33 c-49 -254 -221 -533 -476 -773 -70 -67 -84 -83
-54 -66 127 74 284 219 362 335 114 170 184 370 218 628 7 51 1 55 -55 37z"/>
<path d="M4998 3800 c-4 -14 -9 -74 -11 -135 -8 -176 -66 -319 -233 -570 -102
-154 -106 -161 -44 -95 142 153 248 371 290 595 12 64 10 249 -2 205z"/>
<path d="M7924 3795 c183 -30 323 -82 443 -163 85 -58 193 -177 242 -269 23
-43 39 -67 35 -53 -15 58 -90 184 -145 244 -137 149 -340 239 -569 251 l-95 5
89 -15z"/>
<path d="M7410 3789 c0 -3 75 -9 168 -12 228 -8 345 -41 568 -162 80 -44 134
-68 134 -61 0 3 -31 25 -68 50 -159 105 -333 166 -537 186 -110 11 -265 10
-265 -1z"/>
<path d="M4599 3709 c-41 -28 -100 -76 -132 -107 -57 -56 -124 -148 -115 -158
3 -2 13 8 23 23 33 50 118 134 218 214 54 44 94 79 89 79 -5 0 -42 -23 -83
-51z"/>
<path d="M1632 3710 c-12 -22 -86 -107 -164 -190 -137 -147 -197 -217 -198
-233 0 -4 69 61 153 145 143 142 212 231 232 296 9 32 3 27 -23 -18z"/>
<path d="M1272 3654 c-7 -23 -32 -66 -57 -96 -25 -30 -45 -63 -45 -72 0 -11
16 2 43 36 56 68 79 113 75 146 -3 24 -4 23 -16 -14z"/>
<path d="M8577 3619 c91 -94 153 -217 178 -354 12 -65 13 -67 14 -25 2 150
-107 363 -214 417 -26 13 -22 7 22 -38z"/>
<path d="M7650 3651 l-65 -8 70 -1 c210 -6 438 -76 575 -177 62 -46 160 -149
203 -213 64 -94 122 -233 153 -367 l14 -60 -5 100 c-5 107 -12 142 -52 248
-68 182 -239 347 -439 422 -127 48 -314 71 -454 56z"/>
<path d="M1220 3629 c0 -6 -23 -38 -50 -71 -54 -65 -60 -90 -9 -42 55 52 95
124 70 124 -6 0 -11 -5 -11 -11z"/>
<path d="M2100 3599 c383 -54 544 -92 699 -167 177 -85 287 -221 325 -397 10
-51 15 -61 15 -36 3 114 -70 271 -168 364 -154 145 -380 215 -813 252 -263 22
-286 16 -58 -16z"/>
<path d="M6160 3601 c0 -12 5 -21 10 -21 6 0 10 6 10 14 0 8 -4 18 -10 21 -5
3 -10 -3 -10 -14z"/>
<path d="M6154 3450 c10 -212 81 -383 230 -550 64 -71 85 -80 30 -12 -137 169
-242 421 -245 589 0 21 -5 47 -10 58 -6 13 -8 -15 -5 -85z"/>
<path d="M5042 3463 c-15 -78 -80 -222 -141 -312 -23 -34 -79 -105 -124 -159
-46 -53 -87 -104 -92 -111 -16 -27 49 26 106 85 103 109 189 257 254 437 38
106 42 127 22 127 -7 0 -17 -26 -25 -67z"/>
<path d="M1747 3398 c-43 -143 -57 -213 -56 -277 l1 -46 13 65 c8 36 28 112
45 170 27 96 49 210 39 210 -3 0 -21 -55 -42 -122z"/>
<path d="M7073 3490 c22 -14 126 -50 141 -49 12 0 -92 42 -134 53 -21 6 -22 5
-7 -4z"/>
<path d="M6260 3418 c0 -27 49 -176 80 -240 86 -176 221 -327 363 -403 63 -34
60 -30 -20 28 -170 125 -320 336 -395 552 -15 44 -27 72 -28 63z"/>
<path d="M1817 3410 c-3 -8 -20 -87 -37 -175 -17 -88 -42 -194 -55 -236 -28
-86 -29 -89 -15 -89 5 0 21 39 36 87 15 48 30 94 34 103 12 23 53 296 47 311
-4 11 -6 11 -10 -1z"/>
<path d="M5127 3341 c-100 -243 -298 -462 -521 -577 -107 -55 -68 -50 54 7
220 103 381 293 480 567 31 85 21 87 -13 3z"/>
<path d="M6396 3360 c3 -14 20 -59 38 -100 99 -234 290 -402 535 -469 41 -12
76 -19 78 -17 2 1 -35 17 -81 33 -124 45 -237 116 -331 208 -93 90 -150 170
-206 289 -22 44 -37 70 -33 56z"/>
<path d="M9391 3349 c-2 -34 42 -176 74 -241 74 -150 191 -261 360 -342 121
-59 159 -67 60 -14 -115 62 -160 96 -246 184 -110 115 -175 220 -224 362 -13
37 -24 60 -24 51z"/>
<path d="M6670 3311 c22 -43 173 -186 250 -238 141 -94 311 -166 426 -179 86
-10 63 9 -39 34 -213 50 -377 145 -566 326 -46 45 -78 70 -71 57z"/>
<path d="M9240 3292 c0 -52 29 -180 60 -260 59 -153 182 -294 317 -365 85 -44
216 -77 304 -77 56 0 215 23 225 32 1 2 -50 4 -114 4 -207 2 -314 53 -500 240
-130 131 -140 133 -42 10 62 -78 182 -181 251 -217 86 -43 25 -30 -80 17 -197
90 -319 262 -397 559 -15 60 -23 79 -24 57z"/>
<path d="M6820 3276 c0 -2 39 -34 88 -71 97 -75 253 -154 352 -180 80 -21 380
-34 380 -16 0 8 -42 11 -134 11 -113 0 -147 4 -222 25 -119 34 -210 79 -337
164 -94 63 -127 80 -127 67z"/>
<path d="M7025 3261 c15 -15 163 -87 225 -110 30 -11 84 -27 120 -36 71 -16
223 -19 255 -4 14 6 6 7 -25 3 -98 -12 -314 39 -494 117 -50 22 -86 35 -81 30z"/>
<path d="M5340 3260 c0 -3 7 -30 15 -60 9 -30 18 -107 22 -170 14 -271 -81
-487 -301 -678 -151 -132 -362 -242 -621 -324 -64 -20 -77 -26 -45 -22 79 11
270 74 375 123 153 72 267 152 381 265 233 233 305 492 213 778 -16 52 -38
101 -39 88z"/>
<path d="M3130 3232 c0 -4 4 -12 9 -17 5 -6 20 -44 32 -85 21 -66 23 -96 24
-248 0 -160 1 -170 13 -130 22 71 26 223 8 301 -19 81 -86 221 -86 179z"/>
<path d="M6580 3196 c0 -9 200 -182 259 -222 123 -87 317 -170 436 -188 23 -4
6 4 -38 18 -168 52 -403 188 -569 330 -71 61 -88 73 -88 62z"/>
<path d="M8326 3075 c4 -55 15 -134 25 -175 20 -79 80 -208 108 -234 12 -11 9
1 -10 41 -31 64 -65 178 -103 353 l-25 115 5 -100z"/>
<path d="M8230 3015 c0 -60 2 -106 5 -103 7 7 8 198 1 206 -3 3 -6 -43 -6
-103z"/>
<path d="M8051 2949 c-1 -147 17 -265 58 -378 26 -71 65 -152 46 -96 -26 77
-57 227 -70 334 -33 286 -32 281 -34 140z"/>
<path d="M8144 2910 c5 -138 32 -237 107 -386 33 -66 56 -110 53 -99 -4 11
-30 90 -60 175 -29 85 -60 191 -68 235 -35 187 -36 189 -32 75z"/>
<path d="M9290 2951 c0 -8 19 -53 41 -99 98 -202 315 -342 554 -357 l70 -5
-76 15 c-175 33 -308 102 -424 219 -58 58 -93 104 -122 161 -24 44 -43 74 -43
66z"/>
<path d="M8255 2807 c6 -65 49 -189 81 -237 32 -48 43 -46 18 2 -9 18 -37 89
-61 158 -35 101 -42 116 -38 77z"/>
<path d="M93 2710 c-28 -17 -33 -25 -33 -58 0 -64 19 -143 47 -201 17 -36 68
-98 150 -183 67 -71 123 -133 123 -138 0 -15 27 -12 63 6 38 19 97 73 97 89 0
6 -21 31 -46 55 -61 60 -154 199 -219 331 -30 58 -61 109 -70 113 -32 12 -80
6 -112 -14z"/>
<path d="M5762 2684 c-24 -14 -41 -28 -38 -31 6 -6 86 43 86 52 0 8 -2 7 -48
-21z"/>
<path d="M3455 2630 c-135 -33 -209 -114 -345 -377 -34 -68 -69 -128 -76 -134
-9 -8 -78 -12 -202 -13 -116 -1 -194 -5 -206 -12 -13 -8 39 -10 205 -9 123 1
233 5 244 9 14 5 49 61 104 164 45 86 104 184 130 217 51 65 134 128 197 150
37 14 38 14 9 14 -16 -1 -43 -4 -60 -9z"/>
<path d="M5659 2602 c-78 -82 -137 -177 -182 -292 -47 -119 -39 -126 16 -15
29 61 88 161 130 224 42 63 76 116 74 118 -2 1 -19 -14 -38 -35z"/>
<path d="M5776 2600 c-91 -101 -195 -300 -236 -455 -16 -57 -23 -117 -25 -210
-3 -112 -3 -121 6 -65 37 259 75 394 152 550 30 61 59 101 101 143 41 39 57
60 49 68 -7 7 -21 -3 -47 -31z"/>
<path d="M6842 2585 c-28 -93 -9 -336 38 -483 77 -243 265 -487 492 -638 138
-91 338 -175 451 -189 36 -5 32 -2 -28 19 -112 40 -303 141 -396 211 -47 35
-122 103 -167 150 -215 226 -325 485 -365 850 -13 117 -13 119 -25 80z"/>
<path d="M7710 2533 c1 -165 171 -474 300 -543 12 -6 -5 15 -37 47 -32 33 -74
86 -93 118 -51 87 -150 341 -150 387 0 21 -4 38 -10 38 -5 0 -10 -21 -10 -47z"/>
<path d="M8046 2509 c47 -158 118 -283 218 -384 61 -61 162 -133 172 -122 2 2
-27 28 -64 59 -120 99 -234 256 -298 411 -38 95 -49 109 -28 36z"/>
<path d="M5817 2508 c-101 -174 -168 -353 -198 -528 -12 -70 -9 -360 3 -360 4
0 8 55 8 123 0 273 51 477 178 707 58 104 56 100 44 100 -6 0 -21 -19 -35 -42z"/>
<path d="M938 2502 c-26 -15 -89 -58 -141 -97 -81 -61 -96 -76 -111 -118 -9
-26 -38 -75 -64 -110 -72 -95 -89 -120 -97 -145 -5 -18 12 -8 74 44 44 37 99
78 122 92 l41 24 -16 -23 c-8 -13 -58 -64 -111 -112 -81 -76 -146 -159 -133
-173 2 -2 23 21 47 51 23 30 97 104 164 164 114 102 206 205 194 217 -2 3 -49
-24 -103 -59 -55 -35 -117 -74 -139 -87 l-40 -23 40 42 c22 23 76 70 119 104
127 100 159 127 146 127 -20 0 -70 -30 -133 -81 -33 -27 -65 -49 -71 -49 -19
0 50 63 162 146 61 46 112 86 112 89 0 10 -16 4 -62 -23z"/>
<path d="M6368 2448 c-164 -210 -257 -397 -287 -583 -17 -105 -18 -241 -2
-231 12 8 28 109 41 249 16 176 60 278 209 486 44 61 88 122 97 136 33 50 6
23 -58 -57z"/>
<path d="M7937 2524 c-10 -10 52 -175 101 -268 53 -100 150 -212 219 -252 24
-15 46 -25 48 -22 2 2 -20 22 -49 44 -114 89 -244 285 -281 427 -17 65 -26 83
-38 71z"/>
<path d="M7847 2438 c78 -256 203 -444 358 -540 50 -31 92 -46 55 -20 -115 81
-226 206 -293 331 -21 39 -58 124 -81 188 -49 136 -77 165 -39 41z"/>
<path d="M3860 2475 c0 -12 149 -76 228 -97 62 -17 106 -21 227 -21 91 -1 160
4 175 11 20 8 -14 11 -155 9 l-180 -2 -130 46 c-71 26 -138 50 -147 54 -10 4
-18 4 -18 0z"/>
<path d="M5868 2397 c-114 -184 -189 -450 -186 -661 l1 -111 7 125 c6 89 16
158 38 241 32 120 119 350 154 407 11 18 19 35 16 37 -2 2 -15 -15 -30 -38z"/>
<path d="M6050 2308 c-108 -189 -163 -441 -141 -646 18 -165 26 -151 26 46 1
153 5 204 22 282 27 118 66 237 104 312 37 72 30 76 -11 6z"/>
<path d="M3920 2336 c0 -10 127 -46 159 -45 29 0 18 5 -49 24 -85 24 -110 29
-110 21z"/>
<path d="M3785 2282 c16 -17 213 -80 306 -98 126 -25 306 -22 392 6 38 12 67
23 65 26 -3 2 -56 -3 -118 -11 -204 -27 -284 -20 -485 45 -108 34 -175 47
-160 32z"/>
<path d="M4175 2280 c-13 -5 30 -9 115 -9 74 0 141 3 149 8 19 12 -237 13
-264 1z"/>
<path d="M4685 2183 c-114 -48 -231 -66 -440 -66 -104 0 -226 5 -269 11 -44 7
-81 10 -83 8 -12 -12 195 -39 335 -43 182 -6 276 5 385 44 64 23 137 60 137
69 0 2 -1 3 -2 3 -2 -1 -30 -13 -63 -26z"/>
<path d="M4940 2048 c-116 -107 -336 -198 -555 -228 -44 -6 -138 -14 -210 -19
l-130 -7 100 -8 c312 -27 680 91 825 264 24 28 41 52 39 54 -2 2 -33 -23 -69
-56z"/>
<path d="M6735 2080 c16 -58 99 -241 143 -313 95 -155 227 -312 347 -410 42
-35 38 -29 -28 41 -141 150 -275 346 -414 605 -30 56 -51 91 -48 77z"/>
<path d="M4775 2040 c-85 -94 -387 -189 -604 -191 -69 0 -99 -3 -86 -9 56 -24
337 3 460 45 115 38 217 103 246 156 13 25 7 24 -16 -1z"/>
<path d="M609 1936 c-59 -62 -116 -130 -127 -152 -24 -49 -37 -98 -22 -89 5 3
10 12 10 20 0 17 75 117 163 219 55 62 96 118 85 115 -2 0 -51 -51 -109 -113z"/>
<path d="M713 1972 c-11 -15 -57 -70 -102 -122 -78 -91 -141 -197 -141 -236 0
-11 13 4 30 34 16 30 63 96 105 148 80 100 141 191 133 199 -2 3 -14 -8 -25
-23z"/>
<path d="M3600 1758 c0 -10 15 -62 34 -116 37 -109 54 -202 37 -202 -6 0 -11
8 -11 18 0 22 -49 127 -56 120 -3 -3 4 -38 16 -77 12 -39 39 -155 59 -258 l38
-188 12 56 c28 134 123 261 274 366 42 30 77 57 77 59 0 7 -71 -25 -115 -51
-56 -33 -137 -119 -179 -189 -21 -35 -37 -53 -40 -45 -3 8 -19 85 -36 172 -17
86 -40 185 -51 220 -23 72 -58 141 -59 115z"/>
<path d="M591 1688 c-77 -141 -107 -242 -82 -284 10 -18 10 -17 11 5 0 13 25
85 55 160 81 203 87 247 16 119z"/>
<path d="M612 1588 c-32 -76 -66 -197 -59 -205 8 -7 44 60 60 112 22 73 40
155 34 161 -2 3 -18 -28 -35 -68z"/>
<path d="M652 1469 c-15 -35 -22 -71 -20 -95 l3 -39 23 67 c13 37 22 80 20 95
-3 25 -6 22 -26 -28z"/>
<path d="M4330 1490 c-143 -30 -255 -83 -345 -162 -45 -40 -105 -120 -105
-141 0 -5 46 35 103 89 122 118 215 173 305 180 l57 4 -41 -13 c-65 -22 -150
-71 -238 -138 -69 -53 -88 -74 -131 -148 -45 -77 -73 -133 -61 -121 2 3 27 39
55 81 115 173 310 306 490 335 45 7 56 24 16 24 -39 0 -29 18 13 23 l37 4 -35
1 c-19 0 -73 -8 -120 -18z"/>
<path d="M8342 1440 c-65 -10 -107 -26 -149 -57 -48 -35 -40 -43 16 -17 110
53 266 70 366 39 27 -8 51 -13 53 -10 9 9 -60 35 -119 44 -71 12 -90 12 -167
1z"/>
<path d="M4467 1414 c-231 -42 -408 -168 -511 -364 -48 -91 -45 -101 5 -17
110 183 296 316 516 368 133 31 128 38 -10 13z"/>
<path d="M4790 1393 c-240 -24 -554 -133 -626 -217 -79 -91 -134 -250 -134
-387 0 -96 20 -155 70 -204 47 -46 52 -39 11 13 -35 44 -52 101 -42 138 7 26
8 25 20 -17 22 -72 60 -139 86 -151 38 -17 39 -5 1 50 -68 102 -93 217 -66
313 30 107 155 233 312 315 107 55 296 118 398 133 41 6 86 13 100 15 32 4
-83 4 -130 -1z"/>
<path d="M3616 1187 c33 -200 44 -292 44 -362 0 -77 -11 -165 -20 -165 -4 0
-12 62 -18 138 -13 143 -33 242 -40 190 -2 -14 4 -93 12 -176 21 -193 20 -320
0 -394 -21 -72 -33 -75 -23 -5 12 80 11 397 -1 397 -6 0 -10 -58 -10 -152 0
-84 -7 -207 -15 -273 -8 -65 -15 -133 -14 -150 0 -25 3 -21 18 25 19 60 49
122 90 187 28 46 41 54 41 26 1 -63 102 -188 200 -248 72 -44 212 -90 319
-106 199 -28 429 22 561 122 43 33 46 34 63 17 12 -13 33 -18 80 -18 74 -1
144 -13 160 -29 8 -8 -19 -10 -105 -9 -123 3 -132 -3 -34 -21 112 -21 194 -14
525 44 l153 27 62 -31 c83 -41 186 -55 285 -40 127 19 200 65 221 140 l10 34
-41 -48 c-58 -68 -124 -98 -224 -105 -144 -9 -258 32 -355 128 -105 103 -162
255 -161 423 1 111 22 202 67 294 32 65 38 71 56 62 10 -6 27 -8 36 -6 11 3 6
7 -15 12 -50 12 -44 43 23 116 31 33 53 63 50 66 -12 12 -37 -9 -72 -62 -38
-57 -76 -85 -115 -85 -18 0 -20 5 -16 26 4 21 2 24 -12 17 -9 -4 -115 -8 -236
-8 -248 -1 -316 -12 -441 -71 -134 -63 -217 -163 -254 -308 -21 -85 -27 -196
-10 -196 24 0 89 41 120 76 60 69 84 164 69 273 -5 36 -6 68 -1 73 16 16 178
77 222 83 l46 7 27 -56 c63 -129 74 -289 28 -408 -49 -127 -175 -248 -321
-309 -193 -81 -379 -74 -565 22 -30 15 -35 16 -20 4 17 -15 76 -44 185 -93 22
-9 22 -11 5 -11 -33 -1 -95 19 -188 60 -107 48 -129 50 -58 4 64 -40 158 -78
256 -101 95 -23 263 -22 329 1 49 17 131 63 124 70 -1 2 -37 -8 -78 -22 -59
-21 -98 -27 -185 -29 -60 -1 -96 0 -80 2 17 2 66 9 110 15 44 6 133 28 198 49
64 21 117 34 117 30 0 -15 -94 -92 -140 -115 -97 -48 -149 -60 -275 -59 -77 0
-144 6 -187 17 -228 56 -428 186 -515 334 l-24 42 17 133 c19 151 15 305 -11
433 -17 81 -51 181 -64 189 -4 3 3 -59 15 -137z"/>
<path d="M4879 1009 c51 -143 0 -322 -128 -450 -72 -72 -76 -85 -13 -45 47 30
105 94 132 145 59 117 67 290 15 356 -14 19 -15 19 -6 -6z"/>
<path d="M4796 964 c8 -66 -17 -166 -66 -272 -22 -47 -40 -87 -40 -90 0 -12
52 64 75 108 13 25 28 65 35 90 15 54 15 189 1 203 -7 7 -9 -5 -5 -39z"/>
<path d="M4669 818 c-49 -102 -105 -185 -148 -214 -29 -21 -31 -24 -11 -19 50
15 108 67 138 124 29 54 67 169 59 177 -2 2 -19 -29 -38 -68z"/>
<path d="M10971 739 c-155 -71 -702 -258 -1100 -376 -51 -15 -89 -29 -83 -31
26 -8 460 110 674 184 220 77 480 185 563 236 44 27 19 21 -54 -13z"/>
<path d="M10865 539 c-99 -38 -240 -90 -313 -115 -73 -26 -131 -48 -129 -50 6
-6 213 54 322 93 97 34 330 141 310 141 -5 1 -91 -30 -190 -69z"/>
<path d="M3516 525 c-4 -44 -18 -145 -32 -225 -13 -80 -26 -155 -28 -168 -8
-50 14 -3 39 82 28 100 45 252 35 336 l-6 55 -8 -80z"/>
<path d="M10595 525 c-98 -24 -591 -184 -568 -185 56 -2 648 173 678 201 13
12 6 11 -110 -16z"/>
<path d="M1975 361 c49 -148 93 -236 137 -277 42 -39 32 -14 -37 95 -40 64
-61 110 -79 177 -25 96 -41 134 -56 134 -5 0 11 -58 35 -129z"/>
<path d="M2011 474 c-2 -40 80 -259 122 -326 23 -38 44 -68 47 -68 3 0 -19 51
-49 113 -31 61 -70 155 -87 207 -18 52 -33 85 -33 74z"/>
<path d="M8439 435 c-9 -8 -251 -72 -359 -95 -58 -12 -260 -48 -450 -80 -190
-33 -363 -63 -385 -69 -36 -8 -37 -9 -10 -10 77 -3 448 49 649 90 219 45 586
145 586 161 0 9 -23 11 -31 3z"/>
<path d="M3415 353 c-16 -94 -35 -182 -48 -219 -8 -21 -18 -48 -21 -59 -6 -14
-1 -12 17 9 35 40 57 117 64 219 6 89 -1 118 -12 50z"/>
<path d="M7955 250 c-116 -26 -203 -53 -184 -57 9 -2 53 5 97 16 44 12 96 21
116 21 37 0 86 18 86 32 0 11 -23 9 -115 -12z"/>
</g>
</svg>
